<svg xmlns="http://www.w3.org/2000/svg" viewBox="0 0 36 24"><path fill="#333" fill-rule="evenodd" d="M1.86 8.656l.687-1.687.703 1.686H1.86zm9.703 8.22H9.078v-.845h2.22v-.858h-2.22v-.766h2.547l1.094 1.235-1.158 1.235zm2.468-1.22l1.548-1.672v3.39l-1.547-1.718zm4.5-.734c0 .39-.28.562-.64.562h-1.296v-1.078h1.312c.344 0 .625.14.625.516zm4.517-.063c0 .42-.328.5-.672.5H21.11v-.954h1.28c.313 0 .657.063.657.453zm-4.344-7.282c0 .406-.328.484-.672.484h-1.264v-.937h1.28c.313 0 .657.063.657.453zm7.172 1.078l.703-1.687.688 1.686h-1.39zM10.922 6.234H9.234L8.03 9.11 6.704 6.233H5.047v4.016l-1.72-4.016h-1.5L.018 10.47h1.092l.39-.94h2.11l.39.94h2.063V7.155L7.53 10.47h.892l1.47-3.314v3.313h1.03V6.233zm8.687 8.688c0-1.063-.75-1.39-1.704-1.39h-3.234l-1.28 1.39-1.25-1.39H8.077v4.234h4l1.297-1.407 1.25 1.406h1.97v-1.422c1.155 0 3.014.28 3.014-1.422zm-4.547-5.328h-2.376V8.75H15v-.86h-2.313v-.765h2.376v-.89h-3.39v4.234h3.39v-.876zM36 18.328c-.453.22-.984.266-1.484.266H31.89v-.375c-.36.28-.92.374-1.374.374H22.25v-1.36c0-.172-.03-.187-.188-.187h-.125v1.547H19.22V17c-.454.188-.94.203-1.407.203h-.33v1.39h-3.296l-.812-.92-.86.92h-5.36V12.69h5.454l.78.906.844-.906h3.657c.422 0 1.094.03 1.422.343v-.342h3.266c.438 0 .985.078 1.36.343v-.342h4.937v.343c.297-.28.828-.342 1.22-.342h2.764v.343c.36-.264.828-.342 1.265-.342H36V2.094C36 .954 35.078 0 33.937 0H2.064C.923 0 0 .953 0 2.094v6.11l1.22-2.798h2.64l.343.688v-.688h3.094l.672 1.516.67-1.516h9.813c.406 0 .828.063 1.14.344v-.344h2.688v.344c.517-.28 1.126-.344 1.704-.344h3.89l.36.688v-.688h2.89l.392.688v-.688h2.812v5.907h-2.844l-.53-.907v.906h-3.548l-.39-.953h-.875l-.39.953c-1.063 0-2.453.17-3.47-.36v.36h-4.358V9.969c0-.11-.016-.22-.156-.22l-.157.016v1.546H9.155v-.734l-.312.735H7.078l-.297-.72v.72H3.376l-.39-.954h-.86l-.39.953H0v10.593C0 23.046.922 24 2.063 24h31.875c1.14 0 2.062-.953 2.062-2.094v-3.578zm-11.844-3.656c0-1-.86-1.14-1.656-1.14h-2.406v4.234h1.015V16.22h1.078c.67 0 .906.124.906.843v.703h1.015v-.844c0-.547-.11-.922-.672-1.125.468-.188.718-.656.718-1.125zm-4.328-7.297c0-1-.86-1.125-1.672-1.125l-2.39-.016v4.235h1V8.936h1.093c1.124 0 .89.626.906 1.532h1.015v-.83c0-.562-.093-.92-.67-1.124.453-.188.718-.657.718-1.14zm8.266 9.516l-2.36-.015v-.844h2.313v-.858h-2.313v-.766h2.36v-.875H24.72v4.236h3.374v-.875zM21.437 6.235h-1.03v4.235h1.03V6.233zm10.83 10.188c0-2.03-2.626-.688-2.626-1.61 0-.343.297-.39.563-.39h1.86v-.89H30.03c-.78 0-1.436.405-1.436 1.265 0 2.015 2.61.765 2.61 1.672 0 .327-.282.39-.532.39h-1.97v.906h1.97c.906 0 1.594-.344 1.594-1.344zm3.733-.78c-.64-.845-2.406-.08-2.406-.83 0-.343.28-.39.562-.39H36v-.89h-2.016c-.78 0-1.453.405-1.453 1.265 0 2.015 2.61.78 2.61 1.672 0 .31-.265.39-.515.39h-1.953v.906h1.953c.5 0 1.078-.11 1.375-.547v-1.58zM33.422 6.25h-1.03v2.938L30.608 6.25h-1.547v4l-1.704-4h-1.516l-1.438 3.328h-.453c-.812 0-.984-.5-.984-1.22 0-1.452.968-1.217 2.03-1.202v-.922h-.984c-1.438 0-2.078.735-2.078 2.157 0 1.36.625 2.08 2.015 2.08h1.172l.39-.94h2.094l.406.94h2.062V7.296l1.906 3.172h1.438V6.25z"/></svg>