<svg xmlns="http://www.w3.org/2000/svg" viewBox="0 0 25 24"><g fill="none" fill-rule="evenodd"><path fill="#F00" d="M11.32.06C9.64.23 8 .76 6.52 1.6 5.05 2.47 3.77 3.63 2.78 5c-.23.3-.45.65-.65 1l10.4 6V0c-.4 0-.8.02-1.2.06z"/><path fill="#FFA500" d="M22.26 5c.23.3.45.65.65 1l-10.38 6V0c.4 0 .8.02 1.2.06 1.7.17 3.33.7 4.8 1.55 1.48.86 2.75 2.02 3.74 3.4z"/><path fill="#FF0" d="M23.46 7.07c-.16-.36-.34-.72-.55-1.07l-10.38 6 10.4 6c.2-.35.38-.7.54-1.07.7-1.54 1.06-3.23 1.06-4.93 0-1.7-.36-3.4-1.06-4.93z"/><path fill="green" d="M22.26 19c.23-.3.45-.65.65-1l-10.38-6v12c.4 0 .8-.02 1.2-.06 1.7-.17 3.33-.7 4.8-1.55 1.48-.86 2.75-2.02 3.74-3.4z"/><path fill="#00F" d="M11.32 23.94c-1.68-.17-3.32-.7-4.8-1.55-1.47-.86-2.75-2.02-3.74-3.4-.23-.3-.45-.65-.65-1l10.4-6v12c-.4 0-.8-.02-1.2-.06z"/><path fill="#9400D3" d="M1.58 7.07C.88 8.6.52 10.3.52 12c0 1.7.37 3.4 1.06 4.93.16.36.35.72.55 1.07l10.4-6-10.4-6c-.2.35-.4.7-.55 1.07z"/></g></svg>