<svg xmlns="http://www.w3.org/2000/svg" viewBox="0 0 36 24"><path fill="#333" fill-rule="evenodd" d="M4.9 10.14c0-.5-.2-.98-.57-1.3-.33-.3-.74-.42-1.4-.42h-.26v3.44h.27c.65 0 1.08-.13 1.4-.4.35-.34.55-.82.55-1.32zm27.74-1.02c0-.5-.34-.76-.98-.76h-.32v1.58h.3c.66 0 1-.28 1-.8V9.1zm-26.7 1.02c0 .77-.35 1.5-.94 2-.5.42-1.08.6-1.86.6H1.66v-5.2h1.48c1.66 0 2.8 1.07 2.8 2.6zm.47 2.6v-5.2h1.02v5.2h-1zm5-1.58c0 1-.73 1.7-1.8 1.7-.76.02-1.32-.3-1.8-.98l.67-.63c.23.45.62.7 1.1.7.46 0 .8-.32.8-.75 0-.22-.1-.4-.3-.53-.12-.08-.32-.15-.7-.3-.96-.34-1.3-.7-1.3-1.43 0-.85.7-1.5 1.63-1.5.57 0 1.1.2 1.53.6l-.53.68c-.26-.3-.5-.42-.82-.42-.44 0-.76.25-.76.57 0 .3.18.44.8.66 1.14.42 1.5.8 1.5 1.63zm4.35 1.4c-.45.22-.83.3-1.27.3-1.54 0-2.75-1.2-2.75-2.72 0-1.52 1.24-2.72 2.77-2.72.44 0 .8.1 1.25.3v1.22c-.42-.42-.78-.6-1.27-.6-.95 0-1.7.8-1.7 1.8 0 1.05.72 1.8 1.75 1.8.45 0 .8-.17 1.22-.58v1.2zM35 22c0 .55-.45 1-1 1H9.48C23.7 20.33 32.5 15.33 35 13.77V22zM21.7 10.17c0 1.56-1.26 2.83-2.82 2.83-1.57 0-2.83-1.27-2.83-2.83s1.26-2.83 2.82-2.83c1.57 0 2.83 1.27 2.83 2.83zm2.38 2.7h-.55L21.3 7.54h1.12l1.4 3.5 1.4-3.5h1.1l-2.24 5.34zm2.7-.14v-5.2h2.88v.9H27.8v1.15h1.8v.87h-1.8v1.4h1.86v.88h-2.88zm6.1 0l-1.4-2.07h-.14v2.07h-1v-5.2h1.5c1.18 0 1.85.56 1.85 1.55 0 .8-.43 1.3-1.2 1.47l1.64 2.18H32.9zM36 2.1C36 .93 35.08 0 33.94 0H2.06C.92 0 0 .94 0 2.1v19.8C0 23.07.92 24 2.06 24h31.88c1.14 0 2.06-.94 2.06-2.1V2.1z"/></svg>