<svg xmlns="http://www.w3.org/2000/svg" viewBox="0 0 24 24"><path fill="#333" fill-rule="evenodd" d="M14 19.5c0 .28-.22.5-.5.5h-3c-.28 0-.5-.22-.5-.5v-3c0-.28.22-.5.5-.5h3c.28 0 .5.22.5.5v3zM18 9c0 2.38-1.63 3.28-2.8 3.95-.75.43-1.2 1.2-1.2 1.55 0 .28-.22.5-.5.5h-3c-.28 0-.5-.22-.5-.5v-.56c0-1.52 1.52-2.8 2.63-3.3.95-.45 1.37-.86 1.37-1.67 0-.7-.92-1.33-1.92-1.33-.56 0-1.08.2-1.35.38-.3.2-.6.5-1.34 1.43-.1.13-.26.2-.4.2-.1 0-.22-.04-.3-.1L6.64 7.98c-.2-.15-.26-.43-.12-.65C7.86 5.1 9.77 4 12.32 4 15 4 18 6.14 18 9zm6 3c0-6.63-5.38-12-12-12C5.37 0 0 5.38 0 12c0 6.63 5.38 12 12 12 6.63 0 12-5.38 12-12z"/></svg>