<svg xmlns="http://www.w3.org/2000/svg" viewBox="0 0 46 46"><path fill="#3F729B" fill-rule="evenodd" d="M23 46c12.7 0 23-10.3 23-23S35.7 0 23 0 0 10.3 0 23s10.3 23 23 23zm9.33-28.33c0 .36-.3.66-.66.66h-3.34c-.36 0-.66-.3-.66-.66v-3.34c0-.36.3-.66.66-.66h3.34c.36 0 .66.3.66.66v3.34zm0 14c0 .36-.3.66-.66.66H14.33c-.36 0-.66-.3-.66-.66V21h2.27c-.18.64-.27 1.3-.27 2 0 4.05 3.28 7.33 7.33 7.33 4.05 0 7.33-3.28 7.33-7.33 0-.7-.1-1.36-.27-2h2.27v10.67zM23 18.33c2.58 0 4.67 2.1 4.67 4.67 0 2.58-2.1 4.67-4.67 4.67-2.58 0-4.67-2.1-4.67-4.67 0-2.58 2.1-4.67 4.67-4.67zM31.67 11H14.33C12.5 11 11 12.5 11 14.33v17.34C11 33.5 12.5 35 14.33 35h17.34C33.5 35 35 33.5 35 31.67V14.33C35 12.5 33.5 11 31.67 11z"/></svg>