<svg viewBox="0 0 46 26" xmlns="http://www.w3.org/2000/svg"><path d="M11 5.32C4.4 6.9 0 9.75 0 13c0 4.16 7.2 7.66 17 8.7v-4C9.45 16.9 4 14.64 4 12c0-1.88 2.73-3.55 7-4.65V5.32zm24 0C41.6 6.9 46 9.75 46 13c0 4.16-7.2 7.66-17 8.7v-4c7.55-.8 13-3.05 13-5.7 0-1.88-2.73-3.55-7-4.65V5.32zM17 14l10 6-10 6V14zm-.62-4.44c0 .28-.13.42-.43.42h-.25c-.3 0-.43-.14-.43-.42V7.92H13v1.9c0 1.46.74 2.18 2.23 2.18h1.3c1.5 0 2.24-.72 2.24-2.2V7.3c0-.84-.3-1.3-1.03-1.5.64-.24 1-.74 1-1.76V2.2C18.74.7 18 0 16.5 0h-1.23c-1.5 0-2.24.72-2.24 2.2v1.66h2.27V2.44c0-.28.14-.42.43-.42h.2c.28 0 .42.14.42.42v2c0 .3-.14.43-.43.43h-1.8v2.07h1.83c.3 0 .43.14.43.43v2.2zm6-7.12c0-.28.13-.42.42-.42h.23c.3 0 .43.14.43.42V3.8h2.3V2.2c0-1.48-.72-2.2-2.22-2.2h-1.32C20.72 0 20 .72 20 2.2v7.6c0 1.48.72 2.2 2.22 2.2h1.37c1.5 0 2.23-.72 2.23-2.2V6.57c0-1.17-.73-1.96-1.95-1.96h-.08c-.55 0-1 .14-1.43.32V2.44zM33 9.8V2.2C33 .7 32.26 0 30.77 0H29.3c-1.5 0-2.24.72-2.24 2.2v7.6c0 1.48.74 2.2 2.23 2.2h1.47c1.5 0 2.23-.72 2.23-2.2zM36 4c1.1 0 2-.9 2-2s-.9-2-2-2-2 .9-2 2 .9 2 2 2zm-5.4-1.56v7.12c0 .28-.12.42-.42.42h-.3c-.3 0-.44-.14-.44-.42V2.44c0-.28.14-.42.43-.42h.3c.3 0 .44.14.44.42zm-8.23 4.3c.14-.05.4-.1.66-.1.34 0 .43.12.43.4v2.52c0 .28-.14.42-.43.42h-.23c-.3 0-.43-.14-.43-.42V6.74z" fill="#333" fill-rule="evenodd"/></svg>