<svg xmlns="http://www.w3.org/2000/svg" viewBox="0 0 165 30"><g fill="none" fill-rule="evenodd"><path fill="#C00" d="M41.366 27.972c.145.5.523.683 1.023.683.22 0 .663-.034.663-.347 0-.343-.434-.41-.69-.458-1.056-.206-2.31-.495-2.31-1.832 0-.55.272-1.09.722-1.41.46-.323 1.057-.43 1.614-.43.974 0 1.915.406 2.26 1.383l-1.426.434c-.163-.42-.476-.566-.91-.566-.23 0-.557.067-.557.36 0 .296.41.354.625.402.53.108 1.096.198 1.588.453.548.296.835.82.835 1.436 0 1.354-1.343 1.896-2.506 1.896-1.18 0-2.23-.493-2.533-1.718l1.6-.286zM49.58 26.643c.394 0 .868-.025.868-.55 0-.5-.426-.543-.82-.543h-.5v1.093h.453zm-.45 3.25h-1.745v-5.63h2.293c.55 0 1.164.017 1.647.296.523.31.835.868.835 1.475 0 .534-.206 1.044-.623 1.378-.434.354-.99.438-1.53.438h-.878v2.044zM56.295 27.103c0 .54.058 1.583.845 1.583.785 0 .843-1.042.843-1.583 0-.55-.08-1.65-.843-1.65-.76 0-.845 1.1-.845 1.65m3.53-.01c0 1.6-.982 2.883-2.685 2.883-1.704 0-2.687-1.284-2.687-2.882 0-1.68.974-2.915 2.687-2.915 1.712 0 2.686 1.234 2.686 2.914M64.66 26.535c.375 0 .826-.057.826-.54 0-.19-.1-.37-.27-.46-.148-.075-.327-.075-.49-.075h-.698v1.075h.63zm.727 3.36l-.818-2.15h-.542v2.15h-1.744V24.26h2.86c.49 0 1.03.065 1.45.345.464.296.687.796.687 1.346 0 .74-.328 1.183-.992 1.485l1.017 2.456h-1.918zM72.187 29.894h-1.64v-4.278H69.37V24.26h3.972v1.356h-1.155v4.278zM76.994 27.972c.148.5.524.683 1.025.683.22 0 .662-.034.662-.347 0-.343-.436-.41-.688-.458-1.057-.206-2.312-.495-2.312-1.832 0-.55.27-1.09.722-1.41.46-.323 1.057-.43 1.615-.43.973 0 1.914.406 2.258 1.383l-1.426.434c-.163-.42-.473-.566-.908-.566-.23 0-.558.067-.558.36 0 .296.41.354.623.402.532.108 1.098.198 1.588.453.55.296.836.82.836 1.436 0 1.354-1.343 1.896-2.506 1.896-1.18 0-2.227-.493-2.532-1.718l1.598-.286z"/><path fill="#05A" d="M84.556 24.586h1.45v1.754h1.75v1.45h-1.75v1.75h-1.45v-1.75h-1.75v-1.45h1.75v-1.754z"/><path fill="#C00" d="M91.435 27.103c0 .54.057 1.583.843 1.583.786 0 .844-1.042.844-1.583 0-.55-.083-1.65-.844-1.65-.762 0-.843 1.1-.843 1.65m3.53-.01c0 1.6-.984 2.883-2.687 2.883-1.704 0-2.687-1.284-2.687-2.882 0-1.68.975-2.915 2.688-2.915 1.712 0 2.686 1.234 2.686 2.914M101.975 27.88c0 .657-.073 1.184-.615 1.62-.482.375-1.07.476-1.662.476-.516 0-1.187-.115-1.622-.404-.597-.395-.713-.926-.713-1.6v-3.71h1.755v3.515c0 .188-.01.44.106.613.13.18.393.256.615.256.194 0 .44-.06.587-.19.22-.187.196-.484.196-.747V24.26h1.352v3.62zM107.158 29.894h-1.637v-4.278h-1.178V24.26h3.974v1.356h-1.158v4.278zM112.68 28.594c.23 0 .378.018.59-.095.156-.094.28-.217.37-.374.196-.325.26-.704.26-1.082 0-.377-.106-.87-.343-1.18-.27-.337-.533-.32-.925-.32h-.196v3.05h.245zm-1.974-4.332h2.072c.813 0 1.46.106 2.065.69.59.557.86 1.328.86 2.135 0 .74-.262 1.507-.777 2.042-.557.58-1.254.764-2.032.764h-2.188v-5.632zM119.773 27.103c0 .54.058 1.583.845 1.583.786 0 .843-1.042.843-1.583 0-.55-.08-1.65-.842-1.65s-.845 1.1-.845 1.65m3.53-.01c0 1.6-.982 2.883-2.685 2.883-1.705 0-2.69-1.284-2.69-2.882 0-1.68.978-2.915 2.69-2.915 1.71 0 2.686 1.234 2.686 2.914M127.39 27.103c0 .54.06 1.583.844 1.583.787 0 .845-1.042.845-1.583 0-.55-.083-1.65-.846-1.65-.76 0-.843 1.1-.843 1.65m3.53-.01c0 1.6-.982 2.883-2.686 2.883s-2.685-1.284-2.685-2.882c0-1.68.972-2.915 2.684-2.915 1.713 0 2.686 1.234 2.686 2.914M135.753 26.535c.378 0 .828-.057.828-.54 0-.19-.097-.37-.27-.46-.147-.075-.328-.075-.49-.075h-.697v1.075h.63zm.73 3.36l-.82-2.15h-.54v2.15h-1.745V24.26h2.86c.49 0 1.03.065 1.448.345.47.296.688.796.688 1.346 0 .74-.328 1.183-.99 1.485l1.017 2.456h-1.917zM142.11 27.972c.147.5.524.683 1.025.683.22 0 .663-.034.663-.347 0-.343-.436-.41-.69-.458-1.054-.206-2.31-.495-2.31-1.832 0-.55.27-1.09.722-1.41.46-.323 1.057-.43 1.615-.43.973 0 1.916.406 2.26 1.383l-1.426.434c-.164-.42-.476-.566-.91-.566-.23 0-.556.067-.556.36 0 .296.408.354.622.402.532.108 1.096.198 1.588.453.55.296.834.82.834 1.436 0 1.354-1.34 1.896-2.504 1.896-1.18 0-2.23-.493-2.53-1.718l1.595-.286z"/><path fill="#05A" d="M50.815 13.087L48.647 5.92l-2.168 7.167h4.335zm7.132 7.945H53.16l-1.248-4.195h-6.59l-1.277 4.195H39.86l5.88-18.92L51.558.738l6.39 20.295zM68.952 10.976c0-.916-.594-1.91-2.17-1.91-2.403 0-2.7 2.38-2.7 4.315 0 1.844.03 4.465 2.523 4.465 1.545 0 2.198-.934 2.347-2.332l4.275-.05c-.357 3.75-3.178 5.98-6.86 5.98-4.572 0-7.273-3.24-7.273-7.704 0-4.643 2.79-8.006 7.54-8.006 3.505 0 6.22 2.3 6.508 5.242h-4.19zM84.54 13.917c-1.663.18-4.72.564-4.72 2.767 0 1.19.712 1.994 1.93 1.994.89 0 1.69-.476 2.196-1.25.623-.954.594-1.845.594-2.914v-.597zm.2 7.23c-.02-.718-.022-1.576.008-2.35-1.247 1.784-2.554 2.647-4.812 2.647-2.67 0-4.75-1.43-4.75-4.284 0-2.234 1.396-3.75 3.385-4.492 1.723-.652 4.13-.774 5.97-.953v-.355c0-.656.058-1.43-.386-1.995-.385-.507-1.13-.714-1.782-.714-1.396 0-2.634.84-2.634 2.325l-4.044-.047c.433-4.054 3.946-5.194 7.123-5.194 1.544 0 3.563.357 4.78 1.37 1.545 1.25 1.397 2.915 1.397 4.73v7.05c0 .773.022 1.545.01 2.262H84.74zM100.73 12.758c0-1.46-.118-3.958-2.107-3.958-2.493 0-2.582 3.273-2.582 5.088 0 1.635.237 4.403 2.406 4.403.8 0 1.544-.534 1.9-1.222.356-.68.385-1.485.385-2.23v-2.08zm.21 8.388v-2.35h-.06c-.832 1.605-2.08 2.648-4.008 2.648-4.246 0-5.436-4.163-5.436-7.674 0-3.602 1.13-8.036 5.524-8.036 1.694 0 2.82.506 3.77 1.905V1.307l4.366-.986v20.824h-4.157zM116.924 11.744c-.088-1.635-.623-3.153-2.523-3.153-1.93 0-2.672 1.43-2.82 3.154h5.344zm-5.315 2.59l-.03.742c0 1.788 1.01 3.243 2.91 3.243 1.336 0 2.727-1.01 2.727-2.406h4.094c0 .743-1.425 5.53-6.97 5.53-4.51 0-7.452-3.153-7.452-7.646 0-4.463 2.643-8.064 7.336-8.064 2.108 0 4.275.953 5.522 2.68 1.246 1.726 1.574 3.867 1.544 5.92h-9.68zM127.792 5.682v2.67h.06c.77-1.785 2.226-2.618 4.186-2.618 1.99 0 3.236.833 4.127 2.62.77-1.787 2.524-2.62 4.396-2.62 1.336 0 2.79.478 3.68 1.547 1.01 1.19.803 2.917.803 4.435v9.43h-4.364v-8c0-.597.057-2.083-.09-2.65-.238-.95-.952-1.22-1.87-1.22-.772 0-1.575.448-1.9 1.162-.327.713-.298 1.902-.298 2.707v8.002h-4.366v-8.002c0-1.578.3-3.9-1.96-3.9-2.284 0-2.196 2.264-2.196 3.9v8.002h-4.364V6.65l4.156-.968zM155.585 20.195c-1.127 3.422-1.722 7.383-5.998 7.383l-2.148.01.046-3.15 2.16.01c1.455 0 2.02-1.874 2.405-3.302l-5.49-15.114h4.283l2.88 8.986 2.868-8.986h3.597l-4.602 14.163z"/><path fill="#C00" d="M32.23 11.07c4.38 6.187 2.7 12.278-4.244 13.67-4.922.986-8.837.254-13.24-1.45 3.755 1.33 7.158 1.585 10.52 1.074 6.72-1.02 8.405-6.464 3.562-12.204-4.363-5.173-13.25-8.097-19.852-7.05C2.002 6.216.05 11.782 4.066 17.008c.664.865 1.234 1.45 2.082 2.178-1.138-.92-2.135-1.935-2.9-3.014-4.43-6.25-1.902-12.676 6.827-14.14C17.593.768 27.768 4.764 32.23 11.07"/><path fill="#05A" d="M14.393 17.397l5.71-.703-.266-8.074-5.444 8.777zM15.36 5.88s5.372.485 9.92 3.177l.847 15.127s-3.75.73-5.782.34l-.146-3.563-8.372.777-4.815 7.272-6.823.92L15.36 5.88zM17.983 2.37s4.2 1 7.066 2.616L24.792.29l-6.81 2.08zM162.162 7.935h.254c.287 0 .53-.105.53-.375 0-.193-.14-.384-.53-.384-.115 0-.193.007-.254.017v.742zm0 1.217h-.35V6.956c.184-.026.36-.052.62-.052.332 0 .55.07.68.165.132.096.2.245.2.454 0 .29-.19.463-.427.535v.016c.193.034.323.208.367.533.053.34.105.47.138.542h-.365c-.052-.073-.104-.272-.147-.56-.052-.28-.192-.385-.47-.385h-.246v.945zm.366-2.807c-.864 0-1.57.742-1.57 1.66 0 .935.706 1.668 1.58 1.668.872.01 1.57-.733 1.57-1.66 0-.926-.698-1.668-1.57-1.668h-.01zm.01-.306c1.072 0 1.926.873 1.926 1.965 0 1.11-.854 1.975-1.936 1.975-1.072 0-1.944-.865-1.944-1.975 0-1.092.872-1.966 1.944-1.966h.01z"/></g></svg>