<svg xmlns="http://www.w3.org/2000/svg" viewBox="0 0 418 76"><g fill="none" fill-rule="evenodd"><path fill="#C00" d="M105 70.86c.37 1.27 1.33 1.73 2.6 1.73.56 0 1.7-.1 1.7-.9 0-.85-1.1-1.02-1.76-1.15-2.68-.52-5.87-1.25-5.87-4.64 0-1.38.7-2.75 1.83-3.56 1.17-.82 2.7-1.1 4.1-1.1 2.48 0 4.87 1.04 5.74 3.5l-3.62 1.1c-.4-1.05-1.2-1.42-2.3-1.42-.6 0-1.42.17-1.42.9 0 .76 1.04.9 1.58 1.03 1.35.27 2.8.5 4.03 1.15 1.4.74 2.13 2.07 2.13 3.63 0 3.44-3.4 4.8-6.36 4.8-3 0-5.65-1.24-6.42-4.34l4.05-.74zm19.7 4.87h-4.42V61.46h5.83c1.4 0 2.96.05 4.2.76 1.3.78 2.1 2.2 2.1 3.74 0 1.35-.52 2.64-1.58 3.5-1.1.88-2.5 1.1-3.88 1.1h-2.23v5.17zm27.16-7.1c0 4.06-2.5 7.3-6.8 7.3-4.34 0-6.83-3.24-6.83-7.3 0-4.25 2.47-7.38 6.82-7.38 4.34 0 6.8 3.13 6.8 7.4zm14.12 7.1l-2.07-5.45h-1.37v5.45h-4.43V61.46h7.26c1.25 0 2.62.17 3.68.88 1.18.75 1.75 2 1.75 3.4 0 1.88-.85 3-2.53 3.77l2.58 6.23h-4.87zm17.26 0h-4.16V64.9h-3v-3.44h10.1v3.43h-2.94v10.83zm12.2-4.87c.38 1.27 1.34 1.73 2.6 1.73.57 0 1.7-.1 1.7-.9 0-.85-1.12-1.02-1.76-1.15-2.68-.52-5.87-1.25-5.87-4.64 0-1.38.7-2.75 1.85-3.56 1.16-.82 2.68-1.1 4.1-1.1 2.47 0 4.86 1.04 5.73 3.5l-3.62 1.1c-.4-1.05-1.2-1.42-2.3-1.42-.58 0-1.42.17-1.42.9 0 .76 1.04.9 1.58 1.03 1.35.27 2.8.5 4.04 1.15 1.4.74 2.12 2.07 2.12 3.63 0 3.44-3.4 4.8-6.36 4.8-3 0-5.66-1.24-6.43-4.34l4.05-.74zm45.62-2.22c0 4.05-2.5 7.3-6.82 7.3s-6.82-3.25-6.82-7.3c0-4.26 2.47-7.4 6.82-7.4s6.82 3.14 6.82 7.4zm17.8 2c0 1.65-.2 3-1.56 4.1-1.23.94-2.72 1.2-4.22 1.2-1.3 0-3.02-.3-4.12-1.02-1.5-1-1.8-2.35-1.8-4.06v-9.4h4.45v8.9c0 .5-.02 1.12.28 1.56.33.46 1 .65 1.56.65.5 0 1.12-.15 1.5-.48.55-.5.5-1.24.5-1.9v-8.74h3.42v9.17zm13.16 5.1h-4.16V64.88h-3v-3.44h10.1v3.43H272v10.83zm9-14.28h5.26c2.06 0 3.7.27 5.24 1.75 1.5 1.42 2.2 3.38 2.2 5.42 0 1.87-.68 3.82-2 5.17-1.4 1.47-3.17 1.93-5.14 1.93h-5.56V61.46zM313 68.64c0 4.05-2.5 7.3-6.82 7.3s-6.82-3.25-6.82-7.3c0-4.26 2.48-7.4 6.82-7.4s6.82 3.14 6.82 7.4zm19.33 0c0 4.05-2.5 7.3-6.8 7.3-4.34 0-6.83-3.25-6.83-7.3 0-4.26 2.47-7.4 6.82-7.4 4.34 0 6.8 3.14 6.8 7.4zm14.12 7.1l-2.07-5.46H343v5.45h-4.43V61.46h7.26c1.25 0 2.62.17 3.68.88 1.2.75 1.76 2 1.76 3.4 0 1.88-.84 3-2.52 3.77l2.58 6.23h-4.87zm14.3-4.88c.36 1.27 1.32 1.73 2.6 1.73.55 0 1.67-.1 1.67-.9 0-.85-1.1-1.02-1.75-1.15-2.67-.52-5.86-1.25-5.86-4.64 0-1.38.7-2.75 1.84-3.56 1.17-.82 2.7-1.1 4.1-1.1 2.47 0 4.86 1.04 5.74 3.5l-3.62 1.1c-.42-1.05-1.2-1.42-2.3-1.42-.6 0-1.42.17-1.42.9 0 .76 1.04.9 1.58 1.03 1.35.27 2.78.5 4.03 1.15 1.4.74 2.12 2.07 2.12 3.63 0 3.44-3.4 4.8-6.36 4.8-2.98 0-5.65-1.24-6.42-4.34l4.06-.74zM81.8 28.06c11.13 15.66 6.87 31.1-10.76 34.62-12.5 2.5-22.43.64-33.6-3.68 9.52 3.37 18.16 4.02 26.7 2.72 17.06-2.58 21.33-16.37 9.04-30.92-11.08-13.1-33.63-20.5-50.4-17.85C5.08 15.75.12 29.85 10.32 43.1c1.7 2.18 3.13 3.66 5.3 5.5-2.9-2.33-5.43-4.9-7.38-7.63C-3 25.14 3.42 8.87 25.58 5.14c19.08-3.2 44.9 6.93 56.23 22.9zm44.06 39.44c1 0 2.2-.07 2.2-1.4 0-1.27-1.08-1.37-2.08-1.37h-1.27v2.77h1.16zm17.04 1.16c0 1.37.15 4 2.15 4s2.14-2.63 2.14-4c0-1.4-.22-4.18-2.15-4.18s-2.15 2.8-2.15 4.18zm21.23-1.44c.96 0 2.1-.14 2.1-1.37 0-.48-.25-.94-.68-1.16-.38-.2-.83-.2-1.25-.2h-1.77v2.72h1.6zm67.97 1.44c0 1.37.15 4 2.14 4 2 0 2.14-2.63 2.14-4 0-1.4-.2-4.18-2.14-4.18-1.93 0-2.14 2.8-2.14 4.18zm53.94 3.78c.57 0 .95.04 1.5-.24.4-.24.7-.55.93-.95.5-.82.66-1.78.66-2.74 0-.94-.27-2.2-.87-2.98-.7-.85-1.35-.8-2.35-.8h-.5v7.72h.64zm18-3.78c0 1.37.15 4 2.14 4 2 0 2.14-2.63 2.14-4 0-1.4-.2-4.18-2.14-4.18-1.93 0-2.14 2.8-2.14 4.18zm19.34 0c0 1.37.14 4 2.14 4s2.14-2.63 2.14-4c0-1.4-.2-4.18-2.14-4.18-1.94 0-2.14 2.8-2.14 4.18zm21.22-1.44c.96 0 2.1-.14 2.1-1.37 0-.48-.25-.94-.68-1.16-.38-.2-.84-.2-1.25-.2H343v2.72h1.6z"/><path fill="#05A" d="M214.64 62.3h3.68v4.43h4.44v3.67h-4.44v4.44h-3.68V70.4h-4.44v-3.67h4.44V62.3zm-67.55-9.02h-12.15l-3.17-10.63h-16.73l-3.24 10.63H101.2L116.1 5.35l14.78-3.48 16.2 51.4zm27.93-25.48c0-2.32-1.5-4.83-5.5-4.83-6.1 0-6.86 6.03-6.86 10.93 0 4.67.07 11.3 6.4 11.3 3.92 0 5.58-2.36 5.96-5.9l10.85-.12c-.9 9.5-8.06 15.14-17.4 15.14-11.62 0-18.47-8.2-18.47-19.5 0-11.77 7.1-20.3 19.15-20.3 8.9 0 15.78 5.83 16.52 13.28h-10.64zm40.08 25.77c-.05-1.82-.05-4 .03-5.95-3.17 4.52-6.5 6.7-12.22 6.7-6.77 0-12.04-3.6-12.04-10.85 0-5.66 3.54-9.5 8.6-11.38 4.36-1.66 10.47-1.97 15.14-2.42v-.9c0-1.66.15-3.62-.98-5.06-.98-1.28-2.87-1.8-4.52-1.8-3.55 0-6.7 2.12-6.7 5.88l-10.26-.12c1.1-10.26 10.02-13.15 18.1-13.15 3.9 0 9.03.9 12.12 3.47 3.92 3.16 3.55 7.38 3.55 11.98v17.86c0 1.96.06 3.9.04 5.73H215.1zm41.13 0v-5.95h-.15c-2.1 4.06-5.28 6.7-10.18 6.7-10.77 0-13.8-10.54-13.8-19.44 0-9.12 2.87-20.35 14.03-20.35 4.3 0 7.16 1.28 9.57 4.82V3.3L266.78.8v52.77h-10.55zM283.3 36.3l-.06 1.9c0 4.52 2.56 8.2 7.4 8.2 3.38 0 6.9-2.55 6.9-6.08h10.4c0 1.88-3.62 14-17.7 14-11.45 0-18.9-7.98-18.9-19.37 0-11.3 6.7-20.42 18.6-20.42 5.36 0 10.86 2.4 14.03 6.78 3.16 4.4 4 9.8 3.92 15l-24.6.02zm41.1-21.9v6.76h.14c1.96-4.52 5.66-6.63 10.63-6.63 5.05 0 8.22 2.1 10.48 6.63 1.96-4.52 6.4-6.63 11.16-6.63 3.4 0 7.1 1.2 9.35 3.92 2.56 3 2.03 7.38 2.03 11.23v23.9H357.1V33.3c0-1.5.15-5.28-.22-6.7-.6-2.42-2.42-3.1-4.75-3.1-1.96 0-4 1.13-4.82 2.94-.82 1.8-.75 4.82-.75 6.86v20.27h-11.08V33.3c0-4 .76-9.88-4.97-9.88-5.8 0-5.58 5.73-5.58 9.88v20.27h-11.08V16.85l10.55-2.46zm70.54 36.76c-2.86 8.67-4.37 18.7-15.22 18.7l-5.45.03.12-8 5.47.03c3.7 0 5.12-4.74 6.1-8.36l-13.94-38.3h10.88l7.32 22.78 7.28-22.77h9.13l-11.7 35.88zM39 14.9s13.63 1.23 25.18 8.04l2.14 38.33s-9.5 1.84-14.68.86l-.37-9.03-21.25 1.97L17.8 73.5.48 75.82l38.5-60.93zM45.64 6s10.66 2.54 17.93 6.63L62.94.73 45.64 6zm366.94 9.3c2.72 0 4.88 2.2 4.88 4.98 0 2.8-2.16 5-4.9 5-2.73 0-4.95-2.2-4.95-5 0-2.77 2.22-4.98 4.94-4.98h.02zM255.7 32.32c0-3.7-.3-10.03-5.35-10.03-6.33 0-6.55 8.28-6.55 12.88 0 4.15.6 11.16 6.1 11.16 2.03 0 3.92-1.36 4.82-3.1.9-1.73.98-3.76.98-5.65V32.3zm-41.1 2.94c-4.22.45-11.98 1.43-11.98 7 0 3.02 1.8 5.06 4.9 5.06 2.26 0 4.3-1.2 5.57-3.17 1.57-2.42 1.5-4.67 1.5-7.38v-1.5zm82.2-5.5c-.22-4.15-1.58-8-6.4-8-4.9 0-6.78 3.62-7.16 8h13.57zm111.78-9.48c0 2.37 1.8 4.23 4 4.23 2.23.03 4-1.85 4-4.2s-1.77-4.22-4-4.22c-2.2 0-4 1.87-4 4.2zm3.06 2.9h-.9v-5.56c.48-.06.92-.13 1.58-.13.85 0 1.4.17 1.73.4.34.26.5.63.5 1.16 0 .73-.47 1.17-1.07 1.36v.04c.48.1.82.53.93 1.35.14.87.27 1.2.36 1.38h-.93c-.13-.18-.26-.68-.37-1.4-.14-.72-.5-1-1.2-1h-.62v2.4zm0-3.08h.64c.73 0 1.35-.26 1.35-.95 0-.5-.36-.97-1.35-.97-.3 0-.48.02-.64.04v1.88zM129 33.15L123.5 15l-5.52 18.15h11zM36.53 44.07l14.5-1.78-.68-20.46-13.82 22.23z"/></g></svg>