<svg xmlns="http://www.w3.org/2000/svg" viewBox="0 0 36 24"><path fill="#333" fill-rule="evenodd" d="M10.484 12.578c-.015.5-.265.844-.625.844-.204 0-.313-.14-.313-.344 0-.328.25-.5.734-.5h.204zm6.172-.562c.078-.375.282-.594.563-.594.5 0 .405.53.405.594h-.97zm8.438.562c-.016.5-.266.844-.625.844-.19 0-.314-.14-.314-.344 0-.328.25-.5.75-.5h.188zm4.984-.406c0 .672-.297 1.125-.703 1.125-.297 0-.438-.22-.438-.656 0-.656.282-1.11.672-1.11.296 0 .468.22.468.642zM7.5 9.97l-.86 2.546-.03-2.547H5.343l-.688 4.092h.828l.532-3.124.062 3.124h.61l1.11-3.14-.5 3.14h.874L8.86 9.97H7.5zm3.953 1.67c0-.64-.39-.968-1.156-.968-.313 0-.61.047-1.047.172-.11.687-.11.75-.11.75.14-.047.485-.156.922-.156.407 0 .563.078.563.312 0 .047-.016.094-.03.203-.142-.015-.267-.015-.36-.015-.97 0-1.547.468-1.547 1.28 0 .532.328.907.812.907.39 0 .688-.125.906-.406l-.015.342h.735c.016-.25.188-1.28.266-1.765.032-.28.063-.485.063-.656zm2.438-.906c-.234-.046-.578-.062-.78-.062-.985 0-1.313.5-1.313 1.125 0 .422.203.703.672.922.342.17.405.217.405.374 0 .203-.156.297-.5.297-.266 0-.516-.046-.797-.124-.11.734-.11.765-.11.765.188.048.376.095.907.095.922.016 1.36-.344 1.36-1.11 0-.453-.188-.734-.626-.937-.376-.156-.407-.203-.407-.36 0-.17.14-.265.422-.265.172 0 .406.016.64.047l.126-.766zm1.376 0l.093-.5h-.86c-.344 1.97-.39 2.282-.39 2.282-.063.343-.126.734-.126.875.016.485.25.735.704.735.203 0 .39-.03.624-.11l.126-.734c-.063.017-.14.033-.25.033-.204 0-.297-.08-.297-.25 0-.094.157-.89.25-1.516h.454l.11-.813h-.438zm3.171 1.14c0-.733-.468-1.202-1.187-1.202-.875 0-1.516.828-1.516 1.97 0 .967.5 1.483 1.485 1.483.296 0 .593-.047.89-.125l.14-.844c-.313.156-.594.22-.906.22-.5 0-.813-.204-.75-.688h1.734c.078-.33.11-.58.11-.813zm2.172-1.155c-.376-.08-.58.124-.844.53.015-.172.062-.344.047-.516h-.797c-.11 1.032-.282 2.079-.453 3.11l-.047.22.875-.002c.313-2.03.39-2.42.876-2.374.093-.422.234-.782.343-.97zm2.92-.642c-.124-.047-.577-.203-.952-.203-1.172 0-1.984 1.016-1.984 2.484 0 1.093.593 1.765 1.53 1.765.25 0 .454-.03.782-.125l.157-.922c-.297.14-.532.203-.75.203-.516 0-.813-.374-.813-1 0-.89.453-1.53 1.11-1.53.25 0 .468.063.78.22l.14-.892zm2.532 1.563c0-.64-.39-.968-1.14-.968-.328 0-.61.047-1.047.172-.125.687-.125.75-.125.75.14-.047.5-.156.922-.156.406 0 .562.078.562.312 0 .047 0 .094-.03.203-.126-.015-.25-.015-.36-.015-.97 0-1.532.468-1.532 1.28 0 .532.313.907.797.907.406 0 .703-.125.92-.406l-.014.342h.718c.032-.25.188-1.28.266-1.765.047-.28.063-.485.063-.656zm2.204-.92c-.36-.08-.563.124-.844.53.03-.172.062-.344.062-.516h-.812c-.11 1.032-.266 2.079-.453 3.11l-.048.22.875-.002c.328-2.03.39-2.42.89-2.374.08-.422.22-.782.33-.97zm2.203-.75l-.19 1.186c-.233-.312-.5-.453-.827-.453-.78 0-1.437.938-1.437 2.047 0 .828.422 1.375 1.062 1.375.328 0 .563-.11.813-.36l-.046.297h.828l.672-4.093h-.875zM32.202 12c0 4.688-3.797 8.5-8.5 8.5-1.922 0-3.687-.64-5.125-1.72 1.203-1.108 2.11-2.53 2.578-4.124h-.78c-.47 1.406-1.298 2.672-2.376 3.64-1.078-.968-1.906-2.233-2.375-3.64h-.78c.467 1.594 1.374 3.016 2.577 4.125-1.438 1.08-3.203 1.72-5.125 1.72-4.703 0-8.5-3.813-8.5-8.5 0-4.688 3.797-8.5 8.5-8.5 1.922 0 3.687.64 5.125 1.72-1.28 1.17-2.22 2.702-2.672 4.436h.78C15.985 8.11 16.845 6.75 18 5.703c1.156 1.047 2.016 2.406 2.47 3.953h.78c-.453-1.734-1.39-3.265-2.672-4.437 1.438-1.08 3.203-1.72 5.125-1.72 4.703 0 8.5 3.813 8.5 8.5zM36 2c0-1.094-.906-2-2-2H2C.906 0 0 .906 0 2v20c0 1.094.906 2 2 2h32c1.094 0 2-.906 2-2V2z"/></svg>