<svg xmlns="http://www.w3.org/2000/svg" viewBox="0 0 36 24"><path fill="#333" fill-rule="evenodd" d="M11.64 12.156c0-.61-.437-.97-1.015-.97-.766.002-1.36.61-1.36 1.377 0 .61.422.937 1 .937.766 0 1.376-.578 1.376-1.344zm12.266-2.328c0-.672-.593-.703-1.125-.703h-.28c-.11 0-.188.063-.203.172l-.266 1.672.5-.017c.814 0 1.376-.187 1.376-1.125zm5.485 2.328c0-.61-.437-.97-1.015-.97-.766.002-1.36.61-1.36 1.377 0 .61.438.937 1.016.937.75 0 1.36-.578 1.36-1.344zM8.017 9.484c0 1.797-1.094 2.86-2.875 2.86-.296 0-1.062-.156-1.124.297l-.282 1.72c-.015.17-.17.296-.343.296H2.204c-.125 0-.22-.125-.203-.25L3.016 8.03c.015-.17.17-.296.328-.296h2.5c1.156 0 2.172.438 2.172 1.75zm4.828 4.875c-.03.17-.172.296-.344.296h-1.078c-.14 0-.203-.11-.203-.25 0-.094.03-.234.06-.328-.39.438-1.092.688-1.655.688-1.22 0-1.984-.797-1.984-2.016 0-1.484 1.173-2.828 2.704-2.828.594 0 1.125.094 1.484.625.016-.172.03-.516.266-.516h1.187c.126 0 .22.126.204.25l-.64 4.08zm6.984-4.11c0 .047 0 .078-.03.11l-3.985 5.75c-.063.093-.172.156-.282.156H14.33c-.11 0-.203-.094-.203-.203 0-.188 1.11-1.64 1.28-1.875-.108-.33-1.327-3.86-1.327-3.938 0-.11.094-.22.203-.22h1.173c.156 0 .297.11.344.25l.687 2.345 1.657-2.438c.063-.093.172-.156.282-.156h1.203c.11 0 .203.11.203.22zm5.938-.766c0 1.797-1.094 2.86-2.875 2.86-.296 0-1.062-.156-1.124.297l-.282 1.813c-.03.11-.125.203-.25.203h-1.28c-.126 0-.22-.125-.204-.25l1.016-6.375c.015-.17.172-.296.343-.296h2.484c1.156 0 2.172.438 2.172 1.75zm4.828 4.875c-.032.17-.172.296-.344.296h-1.078c-.14 0-.203-.11-.203-.25 0-.094.046-.234.06-.328-.374.438-1.077.688-1.655.688-1.22 0-1.984-.797-1.984-2.016 0-1.484 1.172-2.828 2.704-2.828.61 0 1.14.094 1.484.625.016-.172.03-.516.266-.516h1.187c.126 0 .22.126.204.25l-.64 4.08zM34 7.97l-1.016 6.39c-.015.17-.172.296-.328.296h-1.03c-.126 0-.22-.11-.22-.22l.016-.03 1.015-6.5c.016-.093.11-.172.204-.172h1.157c.11 0 .203.094.203.22v.015zM6.125 10.062c.14-.844-.39-.938-1.094-.938h-.296c-.093 0-.187.063-.203.172l-.264 1.672.515-.017c.69 0 1.22-.094 1.345-.89zM36 2c0-1.094-.906-2-2-2H2C.906 0 0 .906 0 2v20c0 1.094.906 2 2 2h32c1.094 0 2-.906 2-2V2z"/></svg>