<svg xmlns="http://www.w3.org/2000/svg" viewBox="0 0 46 46"><path fill="#BD081C" fill-rule="evenodd" d="M23 0C10.3 0 0 10.3 0 23c0 9.74 6.06 18.07 14.62 21.42-.2-1.82-.38-4.6.08-6.6l2.7-11.43s-.7-1.4-.7-3.43c0-3.2 1.86-5.58 4.17-5.58 1.96 0 2.9 1.46 2.9 3.23 0 1.97-1.25 4.92-1.9 7.66-.54 2.27 1.15 4.14 3.4 4.14 4.1 0 7.24-4.3 7.24-10.53 0-5.5-3.95-9.35-9.6-9.35-6.54 0-10.38 4.9-10.38 9.98 0 1.98.76 4.1 1.7 5.25.2.23.23.43.17.66-.2.73-.57 2.3-.65 2.6-.1.43-.33.52-.77.32-2.87-1.34-4.67-5.54-4.67-8.9 0-7.27 5.28-13.93 15.2-13.93 8 0 14.2 5.68 14.2 13.28 0 7.94-5 14.32-11.95 14.32-2.33 0-4.52-1.2-5.27-2.64l-1.43 5.47c-.52 2-1.92 4.5-2.86 6.02 2.14.67 4.43 1.03 6.8 1.03 12.7 0 23-10.3 23-23S35.7 0 23 0"/></svg>