<svg xmlns="http://www.w3.org/2000/svg" viewBox="0 0 13 16"><path fill="#333" fill-rule="evenodd" d="M12.44 5c0 2.38-1.7 3.28-2.92 3.95-.76.43-1.23 1.2-1.23 1.55 0 .28-.24.5-.53.5H4.65c-.3 0-.5-.22-.5-.5v-.56c0-1.52 1.56-2.8 2.7-3.3 1-.45 1.44-.86 1.44-1.67 0-.7-.97-1.33-2-1.33-.6 0-1.13.2-1.4.38-.3.2-.63.5-1.4 1.43-.1.13-.26.2-.4.2-.12 0-.23-.04-.3-.1L.64 3.98c-.2-.15-.28-.43-.13-.65C1.92 1.1 3.9 0 6.54 0c2.8 0 5.9 2.14 5.9 5zM8.3 15.5c0 .28-.24.5-.53.5H4.65c-.3 0-.5-.22-.5-.5v-3c0-.28.2-.5.5-.5h3.12c.3 0 .52.22.52.5v3z"/></svg>