<svg xmlns="http://www.w3.org/2000/svg" viewBox="0 0 24 24"><path fill="#333" fill-rule="evenodd" d="M23.6 14.5c0-.27-.2-.5-.5-.5h-3c-.23 0-.38.14-.46.36-.27.62-.45 1.22-.83 1.83C17.37 18.55 14.8 20 12 20c-2.02 0-3.97-.78-5.44-2.16L8.7 15.7c.2-.18.3-.43.3-.7 0-.55-.45-1-1-1H1c-.55 0-1 .45-1 1v7c0 .55.45 1 1 1 .27 0 .52-.1.7-.3l2.02-2C5.94 22.8 8.9 24 11.94 24c5.76 0 10.33-3.86 11.65-9.4v-.1zM24 2c0-.55-.45-1-1-1-.27 0-.52.1-.7.3l-2.03 2C18.05 1.23 15.07 0 12 0 6.23 0 1.62 3.84.28 9.4v.1c0 .27.22.5.5.5h3.1c.25 0 .4-.14.48-.36.26-.62.45-1.22.83-1.83C6.63 5.45 9.2 4 12 4c2.02 0 3.97.77 5.45 2.14L15.3 8.3c-.2.18-.3.43-.3.7 0 .55.45 1 1 1h7c.55 0 1-.45 1-1V2z"/></svg>