<?xml version="1.0" encoding="UTF-8" standalone="no"?>
<svg width="26px" height="26px" viewBox="0 0 26 26" version="1.1" xmlns="http://www.w3.org/2000/svg" xmlns:xlink="http://www.w3.org/1999/xlink" xmlns:sketch="http://www.bohemiancoding.com/sketch/ns">
    <path fill-rule="evenodd" d="M15.8284271,13 L18.6610543,10.1673729 C19.4385511,9.38987606 19.4379028,8.12419433 18.6568542,7.34314575 C17.8703603,6.55665184 16.6113561,6.56021676 15.8326271,7.33894573 L13,10.1715729 L10.1673729,7.33894573 C9.38987606,6.56144893 8.12419433,6.56209717 7.34314575,7.34314575 C6.55665184,8.12963966 6.56021676,9.38864388 7.33894573,10.1673729 L10.1715729,13 L7.33894573,15.8326271 C6.56144893,16.6101239 6.56209717,17.8758057 7.34314575,18.6568542 C8.12963966,19.4433482 9.38864388,19.4397832 10.1673729,18.6610543 L13,15.8284271 L15.8326271,18.6610543 C16.6101239,19.4385511 17.8758057,19.4379028 18.6568542,18.6568542 C19.4433482,17.8703603 19.4397832,16.6113561 18.6610543,15.8326271 L15.8284271,13 L15.8284271,13 L15.8284271,13 L15.8284271,13 Z M13,0 C5.82029825,0 0,5.82029825 0,13 C0,20.1797017 5.82029825,26 13,26 C20.1797017,26 26,20.1797017 26,13 C26,5.82029825 20.1797017,0 13,0 L13,0 Z" id="times" fill="#000000" sketch:type="MSShapeGroup"></path>
    
</svg>