<svg xmlns="http://www.w3.org/2000/svg" viewBox="0 0 46 46"><path fill="#55ACEE" fill-rule="evenodd" d="M23 46c12.7 0 23-10.3 23-23S35.7 0 23 0 0 10.3 0 23s10.3 23 23 23zm12-30.2c-.88.4-1.83.66-2.83.78 1.02-.6 1.8-1.57 2.17-2.72-.95.56-2 .97-3.13 1.2-.9-.96-2.17-1.56-3.58-1.56-2.72 0-4.93 2.2-4.93 4.92 0 .4.04.76.12 1.12-4.1-.2-7.72-2.16-10.15-5.14-.42.73-.67 1.57-.67 2.48 0 1.7.87 3.2 2.2 4.1-.8-.03-1.57-.25-2.24-.62v.06c0 2.38 1.7 4.37 3.95 4.83-.4.1-.83.17-1.28.17-.32 0-.63-.03-.93-.1.62 1.97 2.44 3.4 4.6 3.43-1.7 1.32-3.82 2.1-6.13 2.1-.4 0-.78-.02-1.17-.06 2.18 1.4 4.77 2.2 7.55 2.2 9.05 0 14-7.5 14-14v-.64c.95-.7 1.8-1.56 2.45-2.55z"/></svg>