<svg xmlns="http://www.w3.org/2000/svg" viewBox="0 0 36 24"><path fill="#333" fill-rule="evenodd" d="M30.86 13.47l-.6-2.9-.18-.85-.35.95c-.8 2.22-1.03 2.8-1.03 2.8h2.16zM8.3 12.45C7.23 9.5 4.87 7.95 2 7.2l.03-.2h4.2c.55 0 1.04.2 1.16.84l.9 4.6zM11.1 7h2.74L9.77 17.02H7.03l-2.1-7.97c1.5.6 2.82 1.95 3.37 3.4l.26 1.4L11.1 7zm2.17 10.03L14.9 7h2.58l-1.62 10.03h-2.6zm12-9.78l-.36 2.17-.23-.12c-.47-.22-1.1-.4-1.94-.38-1 0-1.48.44-1.48.86 0 .47.55.8 1.45 1.25 1.5.72 2.2 1.58 2.2 2.72-.04 2.08-1.8 3.44-4.52 3.42-1.18 0-2.3-.25-2.9-.53l.36-2.25.35.16c.82.4 1.38.52 2.43.52.73 0 1.54-.3 1.54-.97 0-.43-.33-.76-1.34-1.24-1-.48-2.28-1.28-2.27-2.72.02-1.95 1.82-3.3 4.38-3.3 1 0 1.8.2 2.33.4zM31.9 7L34 17.03h-2.4l-.32-1.5h-3.3s-.12.27-.56 1.5H24.7l3.85-9.2c.26-.64.73-.83 1.36-.83h2zM36 2c0-1.1-.9-2-2-2H2C.9 0 0 .9 0 2v20c0 1.1.9 2 2 2h32c1.1 0 2-.9 2-2V2z"/></svg>