<svg xmlns="http://www.w3.org/2000/svg" viewBox="0 0 46 46"><path fill="#CD201F" fill-rule="evenodd" d="M23 46c12.7 0 23-10.3 23-23S35.7 0 23 0 0 10.3 0 23s10.3 23 23 23zm-3.3-18.85v-9l8.64 4.52-8.64 4.48zM38.68 16.6s-.3-2.2-1.27-3.17c-1.2-1.28-2.57-1.28-3.2-1.36-4.48-.32-11.2-.32-11.2-.32s-6.72 0-11.2.32c-.63.08-2 .08-3.2 1.36-.97.97-1.28 3.17-1.28 3.17S7 19.2 7 21.78v2.43c0 2.6.32 5.18.32 5.18s.3 2.2 1.27 3.18c1.2 1.27 2.8 1.23 3.52 1.37 2.56.24 10.88.32 10.88.32s6.72 0 11.2-.34c.63-.06 2-.07 3.2-1.34.97-.97 1.28-3.18 1.28-3.18S39 26.8 39 24.2V21.8c0-2.6-.32-5.18-.32-5.18z"/></svg>