<svg style="display: none;">
   <defs>
      <symbol id="amex" viewBox="0 0 36 24"><path fill-rule="evenodd" d="M1.86 8.656l.687-1.687.703 1.686H1.86zm9.703 8.22H9.078v-.845h2.22v-.858h-2.22v-.766h2.547l1.094 1.235-1.158 1.235zm2.468-1.22l1.548-1.672v3.39l-1.547-1.718zm4.5-.734c0 .39-.28.562-.64.562h-1.296v-1.078h1.312c.344 0 .625.14.625.516zm4.517-.063c0 .42-.328.5-.672.5H21.11v-.954h1.28c.313 0 .657.063.657.453zm-4.344-7.282c0 .406-.328.484-.672.484h-1.264v-.937h1.28c.313 0 .657.063.657.453zm7.172 1.078l.703-1.687.688 1.686h-1.39zM10.922 6.234H9.234L8.03 9.11 6.704 6.233H5.047v4.016l-1.72-4.016h-1.5L.018 10.47h1.092l.39-.94h2.11l.39.94h2.063V7.155L7.53 10.47h.892l1.47-3.314v3.313h1.03V6.233zm8.687 8.688c0-1.063-.75-1.39-1.704-1.39h-3.234l-1.28 1.39-1.25-1.39H8.077v4.234h4l1.297-1.407 1.25 1.406h1.97v-1.422c1.155 0 3.014.28 3.014-1.422zm-4.547-5.328h-2.376V8.75H15v-.86h-2.313v-.765h2.376v-.89h-3.39v4.234h3.39v-.876zM36 18.328c-.453.22-.984.266-1.484.266H31.89v-.375c-.36.28-.92.374-1.374.374H22.25v-1.36c0-.172-.03-.187-.188-.187h-.125v1.547H19.22V17c-.454.188-.94.203-1.407.203h-.33v1.39h-3.296l-.812-.92-.86.92h-5.36V12.69h5.454l.78.906.844-.906h3.657c.422 0 1.094.03 1.422.343v-.342h3.266c.438 0 .985.078 1.36.343v-.342h4.937v.343c.297-.28.828-.342 1.22-.342h2.764v.343c.36-.264.828-.342 1.265-.342H36V2.094C36 .954 35.078 0 33.937 0H2.064C.923 0 0 .953 0 2.094v6.11l1.22-2.798h2.64l.343.688v-.688h3.094l.672 1.516.67-1.516h9.813c.406 0 .828.063 1.14.344v-.344h2.688v.344c.517-.28 1.126-.344 1.704-.344h3.89l.36.688v-.688h2.89l.392.688v-.688h2.812v5.907h-2.844l-.53-.907v.906h-3.548l-.39-.953h-.875l-.39.953c-1.063 0-2.453.17-3.47-.36v.36h-4.358V9.969c0-.11-.016-.22-.156-.22l-.157.016v1.546H9.155v-.734l-.312.735H7.078l-.297-.72v.72H3.376l-.39-.954h-.86l-.39.953H0v10.593C0 23.046.922 24 2.063 24h31.875c1.14 0 2.062-.953 2.062-2.094v-3.578zm-11.844-3.656c0-1-.86-1.14-1.656-1.14h-2.406v4.234h1.015V16.22h1.078c.67 0 .906.124.906.843v.703h1.015v-.844c0-.547-.11-.922-.672-1.125.468-.188.718-.656.718-1.125zm-4.328-7.297c0-1-.86-1.125-1.672-1.125l-2.39-.016v4.235h1V8.936h1.093c1.124 0 .89.626.906 1.532h1.015v-.83c0-.562-.093-.92-.67-1.124.453-.188.718-.657.718-1.14zm8.266 9.516l-2.36-.015v-.844h2.313v-.858h-2.313v-.766h2.36v-.875H24.72v4.236h3.374v-.875zM21.437 6.235h-1.03v4.235h1.03V6.233zm10.83 10.188c0-2.03-2.626-.688-2.626-1.61 0-.343.297-.39.563-.39h1.86v-.89H30.03c-.78 0-1.436.405-1.436 1.265 0 2.015 2.61.765 2.61 1.672 0 .327-.282.39-.532.39h-1.97v.906h1.97c.906 0 1.594-.344 1.594-1.344zm3.733-.78c-.64-.845-2.406-.08-2.406-.83 0-.343.28-.39.562-.39H36v-.89h-2.016c-.78 0-1.453.405-1.453 1.265 0 2.015 2.61.78 2.61 1.672 0 .31-.265.39-.515.39h-1.953v.906h1.953c.5 0 1.078-.11 1.375-.547v-1.58zM33.422 6.25h-1.03v2.938L30.608 6.25h-1.547v4l-1.704-4h-1.516l-1.438 3.328h-.453c-.812 0-.984-.5-.984-1.22 0-1.452.968-1.217 2.03-1.202v-.922h-.984c-1.438 0-2.078.735-2.078 2.157 0 1.36.625 2.08 2.015 2.08h1.172l.39-.94h2.094l.406.94h2.062V7.296l1.906 3.172h1.438V6.25z"></path></symbol>
      <symbol id="caretDown" viewBox="0 0 20 12"><path fill-rule="evenodd" d="M19.4 3.4c.38-.35.6-.85.6-1.4 0-1.1-.9-2-2-2H2C.9 0 0 .9 0 2c0 .55.22 1.05.6 1.4l8 8c.35.38.85.6 1.4.6.55 0 1.05-.22 1.4-.6l8-8z"></path></symbol>
      <symbol id="caretLeft" viewBox="0 0 12 20"><path fill-rule="evenodd" d="M8.6.6C8.94.2 9.44 0 10 0c1.1 0 2 .9 2 2v16c0 1.1-.9 2-2 2-.55 0-1.05-.22-1.4-.6l-8-8C.2 11.06 0 10.56 0 10c0-.55.22-1.05.6-1.4l8-8z"></path></symbol>
      <symbol id="caretRight" viewBox="0 0 12 20"><path fill-rule="evenodd" d="M3.4.6C3.06.2 2.56 0 2 0 .9 0 0 .9 0 2v16c0 1.1.9 2 2 2 .55 0 1.05-.22 1.4-.6l8-8c.38-.35.6-.85.6-1.4 0-.55-.22-1.05-.6-1.4l-8-8z"></path></symbol>
      <symbol id="caretUp" viewBox="0 0 20 12"><path fill-rule="evenodd" d="M19.4 8.6c.38.35.6.85.6 1.4 0 1.1-.9 2-2 2H2c-1.1 0-2-.9-2-2 0-.55.22-1.05.6-1.4l8-8C8.94.2 9.44 0 10 0c.55 0 1.05.22 1.4.6l8 8z"></path></symbol>
      <symbol id="cart" viewBox="0 0 33 28"><g fill="none" fill-rule="evenodd" transform="translate(1 1)"><path stroke="#05A" stroke-width="2" d="M5 5h26l-3 12H8L5 5z" stroke-linecap="round" stroke-linejoin="round"></path><rect width="4" height="4" x="8" y="23" fill="#05A" rx="6"></rect><rect width="4" height="4" x="24" y="23" fill="#05A" rx="6"></rect><path stroke="#05A" stroke-width="2" d="M27 21H9L4 1 0 0" stroke-linecap="round" stroke-linejoin="round"></path></g></symbol>
      <symbol id="chat" viewBox="0 0 24 24"><path fill-rule="evenodd" d="M0 10.85c0 3.43 1.76 6.48 4.5 8.47v3.5c0 1.1.75 1.52 1.7.93l3.56-2.24c.72.14 1.47.2 2.24.2 6.63 0 12-4.85 12-10.85S18.63 0 12 0 0 4.86 0 10.85z"></path></symbol>
      <symbol id="checkCircle" viewBox="0 0 24 24"><path fill-rule="evenodd" d="M12 24c6.63 0 12-5.37 12-12S18.63 0 12 0 0 5.37 0 12s5.37 12 12 12zM7.4 10.6c-.35-.38-.85-.6-1.4-.6-1.1 0-2 .9-2 2 0 .55.22 1.05.6 1.4l4 4c.35.38.85.6 1.4.6.55 0 1.05-.22 1.4-.6l8-8c.38-.35.6-.85.6-1.4 0-1.1-.9-2-2-2-.55 0-1.05.22-1.4.6L10 13.16 7.4 10.6z"></path></symbol>
      <symbol id="check" viewBox="0 0 32 24"><path fill-rule="evenodd" d="M6.83 9.17C6.1 8.45 5.1 8 4 8c-2.2 0-4 1.8-4 4 0 1.1.45 2.1 1.17 2.83l8 8C9.9 23.55 10.9 24 12 24s2.1-.45 2.83-1.17l16-16C31.55 6.1 32 5.1 32 4c0-2.2-1.8-4-4-4-1.1 0-2.1.45-2.83 1.17L12 14.34 6.83 9.17z"></path></symbol>
      <symbol id="chevronDown" viewBox="0 0 24 16"><path fill-rule="evenodd" d="M17.17 1.18C17.9.45 18.9 0 20 0c2.2 0 4 1.8 4 4 0 1.1-.45 2.1-1.17 2.83l-8.03 8.05c-.73.7-1.72 1.12-2.8 1.12-1.1 0-2.1-.45-2.82-1.17l-8.02-8C.44 6.1 0 5.1 0 4c0-2.2 1.8-4 4-4 1.1 0 2.1.45 2.84 1.18L12 6.36l5.17-5.18z"></path></symbol>
      <symbol id="chevronLeft" viewBox="0 0 16 24"><path fill-rule="evenodd" d="M14.82 6.83C15.55 6.1 16 5.1 16 4c0-2.2-1.8-4-4-4-1.1 0-2.1.45-2.83 1.17L1.12 9.2C.42 9.93 0 10.92 0 12c0 1.1.45 2.1 1.17 2.82l8 8.02C9.9 23.56 10.9 24 12 24c2.2 0 4-1.8 4-4 0-1.1-.45-2.1-1.18-2.84L9.64 12l5.18-5.17z"></path></symbol>
      <symbol id="chevronRight" viewBox="0 0 16 24"><path fill-rule="evenodd" d="M1.18 6.83C.45 6.1 0 5.1 0 4c0-2.2 1.8-4 4-4 1.1 0 2.1.45 2.83 1.17l8.05 8.03c.7.73 1.12 1.72 1.12 2.8 0 1.1-.45 2.1-1.17 2.82l-8 8.02C6.1 23.56 5.1 24 4 24c-2.2 0-4-1.8-4-4 0-1.1.45-2.1 1.18-2.84L6.36 12 1.18 6.84z"></path></symbol>
      <symbol id="chevronUp" viewBox="0 0 24 16"><path fill-rule="evenodd" d="M17.17 14.82C17.9 15.55 18.9 16 20 16c2.2 0 4-1.8 4-4 0-1.1-.45-2.1-1.17-2.83L14.8 1.12C14.07.42 13.08 0 12 0c-1.1 0-2.1.45-2.82 1.17l-8.02 8C.44 9.9 0 10.9 0 12c0 2.2 1.8 4 4 4 1.1 0 2.1-.45 2.84-1.18L12 9.64l5.17 5.18z"></path></symbol>
      <symbol id="colorWheel" viewBox="0 0 25 24"><g fill-rule="evenodd"><path fill="#F00" d="M11.32.06C9.64.23 8 .76 6.52 1.6 5.05 2.47 3.77 3.63 2.78 5c-.23.3-.45.65-.65 1l10.4 6V0c-.4 0-.8.02-1.2.06z"></path><path fill="#FFA500" d="M22.26 5c.23.3.45.65.65 1l-10.38 6V0c.4 0 .8.02 1.2.06 1.7.17 3.33.7 4.8 1.55 1.48.86 2.75 2.02 3.74 3.4z"></path><path fill="#FF0" d="M23.46 7.07c-.16-.36-.34-.72-.55-1.07l-10.38 6 10.4 6c.2-.35.38-.7.54-1.07.7-1.54 1.06-3.23 1.06-4.93 0-1.7-.36-3.4-1.06-4.93z"></path><path fill="green" d="M22.26 19c.23-.3.45-.65.65-1l-10.38-6v12c.4 0 .8-.02 1.2-.06 1.7-.17 3.33-.7 4.8-1.55 1.48-.86 2.75-2.02 3.74-3.4z"></path><path fill="#00F" d="M11.32 23.94c-1.68-.17-3.32-.7-4.8-1.55-1.47-.86-2.75-2.02-3.74-3.4-.23-.3-.45-.65-.65-1l10.4-6v12c-.4 0-.8-.02-1.2-.06z"></path><path fill="#9400D3" d="M1.58 7.07C.88 8.6.52 10.3.52 12c0 1.7.37 3.4 1.06 4.93.16.36.35.72.55 1.07l10.4-6-10.4-6c-.2.35-.4.7-.55 1.07z"></path></g></symbol>
      <symbol id="crosshair" viewBox="0 0 28 28"><path fill-rule="evenodd" d="M14 20c3.3 0 6-2.7 6-6s-2.7-6-6-6-6 2.7-6 6 2.7 6 6 6zm-9.8-8C5 8.08 8.08 5 12 4.2V2c0-1.1.9-2 2-2s2 .9 2 2v2.2c3.92.8 7 3.88 7.8 7.8H26c1.1 0 2 .9 2 2s-.9 2-2 2h-2.2c-.8 3.92-3.88 7-7.8 7.8V26c0 1.1-.9 2-2 2s-2-.9-2-2v-2.2C8.08 23 5 19.92 4.2 16H2c-1.1 0-2-.9-2-2s.9-2 2-2h2.2zm9.8 4c1.1 0 2-.9 2-2s-.9-2-2-2-2 .9-2 2 .9 2 2 2z"></path></symbol>
      <symbol id="discover" viewBox="0 0 36 24"><path fill-rule="evenodd" d="M4.9 10.14c0-.5-.2-.98-.57-1.3-.33-.3-.74-.42-1.4-.42h-.26v3.44h.27c.65 0 1.08-.13 1.4-.4.35-.34.55-.82.55-1.32zm27.74-1.02c0-.5-.34-.76-.98-.76h-.32v1.58h.3c.66 0 1-.28 1-.8V9.1zm-26.7 1.02c0 .77-.35 1.5-.94 2-.5.42-1.08.6-1.86.6H1.66v-5.2h1.48c1.66 0 2.8 1.07 2.8 2.6zm.47 2.6v-5.2h1.02v5.2h-1zm5-1.58c0 1-.73 1.7-1.8 1.7-.76.02-1.32-.3-1.8-.98l.67-.63c.23.45.62.7 1.1.7.46 0 .8-.32.8-.75 0-.22-.1-.4-.3-.53-.12-.08-.32-.15-.7-.3-.96-.34-1.3-.7-1.3-1.43 0-.85.7-1.5 1.63-1.5.57 0 1.1.2 1.53.6l-.53.68c-.26-.3-.5-.42-.82-.42-.44 0-.76.25-.76.57 0 .3.18.44.8.66 1.14.42 1.5.8 1.5 1.63zm4.35 1.4c-.45.22-.83.3-1.27.3-1.54 0-2.75-1.2-2.75-2.72 0-1.52 1.24-2.72 2.77-2.72.44 0 .8.1 1.25.3v1.22c-.42-.42-.78-.6-1.27-.6-.95 0-1.7.8-1.7 1.8 0 1.05.72 1.8 1.75 1.8.45 0 .8-.17 1.22-.58v1.2zM35 22c0 .55-.45 1-1 1H9.48C23.7 20.33 32.5 15.33 35 13.77V22zM21.7 10.17c0 1.56-1.26 2.83-2.82 2.83-1.57 0-2.83-1.27-2.83-2.83s1.26-2.83 2.82-2.83c1.57 0 2.83 1.27 2.83 2.83zm2.38 2.7h-.55L21.3 7.54h1.12l1.4 3.5 1.4-3.5h1.1l-2.24 5.34zm2.7-.14v-5.2h2.88v.9H27.8v1.15h1.8v.87h-1.8v1.4h1.86v.88h-2.88zm6.1 0l-1.4-2.07h-.14v2.07h-1v-5.2h1.5c1.18 0 1.85.56 1.85 1.55 0 .8-.43 1.3-1.2 1.47l1.64 2.18H32.9zM36 2.1C36 .93 35.08 0 33.94 0H2.06C.92 0 0 .94 0 2.1v19.8C0 23.07.92 24 2.06 24h31.88c1.14 0 2.06-.94 2.06-2.1V2.1z"></path></symbol>
      <symbol id="facebook" viewBox="0 0 46 46"><path fill="#3B5998" fill-rule="evenodd" d="M23 46c12.7 0 23-10.3 23-23S35.7 0 23 0 0 10.3 0 23s10.3 23 23 23zm10.68-35H12.32c-.73 0-1.32.6-1.32 1.32v21.36c0 .73.6 1.32 1.32 1.32h11.5v-9.3H20.7V22.1h3.12V19.4c0-3.1 1.9-4.78 4.66-4.78 1.32 0 2.46.1 2.8.15V18h-1.93c-1.5 0-1.8.72-1.8 1.77v2.3h3.6l-.47 3.64h-3.12V35h6.12c.73 0 1.32-.6 1.32-1.32V12.32c0-.73-.6-1.32-1.32-1.32z"></path></symbol>
      <symbol id="infoCircle" viewBox="0 0 24 24"><path fill-rule="evenodd" d="M14 19.5c0 .28-.22.5-.5.5h-3c-.28 0-.5-.22-.5-.5v-3c0-.28.22-.5.5-.5h3c.28 0 .5.22.5.5v3zM18 9c0 2.38-1.63 3.28-2.8 3.95-.75.43-1.2 1.2-1.2 1.55 0 .28-.22.5-.5.5h-3c-.28 0-.5-.22-.5-.5v-.56c0-1.52 1.52-2.8 2.63-3.3.95-.45 1.37-.86 1.37-1.67 0-.7-.92-1.33-1.92-1.33-.56 0-1.08.2-1.35.38-.3.2-.6.5-1.34 1.43-.1.13-.26.2-.4.2-.1 0-.22-.04-.3-.1L6.64 7.98c-.2-.15-.26-.43-.12-.65C7.86 5.1 9.77 4 12.32 4 15 4 18 6.14 18 9zm6 3c0-6.63-5.38-12-12-12C5.37 0 0 5.38 0 12c0 6.63 5.38 12 12 12 6.63 0 12-5.38 12-12z"></path></symbol>
      <symbol id="instagram" viewBox="0 0 46 46"><path fill="#3F729B" fill-rule="evenodd" d="M23 46c12.7 0 23-10.3 23-23S35.7 0 23 0 0 10.3 0 23s10.3 23 23 23zm9.33-28.33c0 .36-.3.66-.66.66h-3.34c-.36 0-.66-.3-.66-.66v-3.34c0-.36.3-.66.66-.66h3.34c.36 0 .66.3.66.66v3.34zm0 14c0 .36-.3.66-.66.66H14.33c-.36 0-.66-.3-.66-.66V21h2.27c-.18.64-.27 1.3-.27 2 0 4.05 3.28 7.33 7.33 7.33 4.05 0 7.33-3.28 7.33-7.33 0-.7-.1-1.36-.27-2h2.27v10.67zM23 18.33c2.58 0 4.67 2.1 4.67 4.67 0 2.58-2.1 4.67-4.67 4.67-2.58 0-4.67-2.1-4.67-4.67 0-2.58 2.1-4.67 4.67-4.67zM31.67 11H14.33C12.5 11 11 12.5 11 14.33v17.34C11 33.5 12.5 35 14.33 35h17.34C33.5 35 35 33.5 35 31.67V14.33C35 12.5 33.5 11 31.67 11z"></path></symbol>
      <symbol id="invodo360" viewBox="0 0 46 26" xmlns="http://www.w3.org/2000/symbol"><path d="M11 5.32C4.4 6.9 0 9.75 0 13c0 4.16 7.2 7.66 17 8.7v-4C9.45 16.9 4 14.64 4 12c0-1.88 2.73-3.55 7-4.65V5.32zm24 0C41.6 6.9 46 9.75 46 13c0 4.16-7.2 7.66-17 8.7v-4c7.55-.8 13-3.05 13-5.7 0-1.88-2.73-3.55-7-4.65V5.32zM17 14l10 6-10 6V14zm-.62-4.44c0 .28-.13.42-.43.42h-.25c-.3 0-.43-.14-.43-.42V7.92H13v1.9c0 1.46.74 2.18 2.23 2.18h1.3c1.5 0 2.24-.72 2.24-2.2V7.3c0-.84-.3-1.3-1.03-1.5.64-.24 1-.74 1-1.76V2.2C18.74.7 18 0 16.5 0h-1.23c-1.5 0-2.24.72-2.24 2.2v1.66h2.27V2.44c0-.28.14-.42.43-.42h.2c.28 0 .42.14.42.42v2c0 .3-.14.43-.43.43h-1.8v2.07h1.83c.3 0 .43.14.43.43v2.2zm6-7.12c0-.28.13-.42.42-.42h.23c.3 0 .43.14.43.42V3.8h2.3V2.2c0-1.48-.72-2.2-2.22-2.2h-1.32C20.72 0 20 .72 20 2.2v7.6c0 1.48.72 2.2 2.22 2.2h1.37c1.5 0 2.23-.72 2.23-2.2V6.57c0-1.17-.73-1.96-1.95-1.96h-.08c-.55 0-1 .14-1.43.32V2.44zM33 9.8V2.2C33 .7 32.26 0 30.77 0H29.3c-1.5 0-2.24.72-2.24 2.2v7.6c0 1.48.74 2.2 2.23 2.2h1.47c1.5 0 2.23-.72 2.23-2.2zM36 4c1.1 0 2-.9 2-2s-.9-2-2-2-2 .9-2 2 .9 2 2 2zm-5.4-1.56v7.12c0 .28-.12.42-.42.42h-.3c-.3 0-.44-.14-.44-.42V2.44c0-.28.14-.42.43-.42h.3c.3 0 .44.14.44.42zm-8.23 4.3c.14-.05.4-.1.66-.1.34 0 .43.12.43.4v2.52c0 .28-.14.42-.43.42h-.23c-.3 0-.43-.14-.43-.42V6.74z" fill-rule="evenodd"></path></symbol>
      <symbol id="loadingDots" viewBox="0 0 40 10">
         <circle cx="5" cy="5" r="5" width="10" height="10" fill="#333">
           <animate attributeName="opacity" attributeType="XML" values="1; 0.5; 1" begin="0s" dur="0.6s" repeatCount="indefinite"></animate>
         </circle>
         <circle cx="20" cy="5" r="5" width="10" height="10" fill="#333">
           <animate attributeName="opacity" attributeType="XML" values="1; 0.5; 1" begin="0.2s" dur="0.6s" repeatCount="indefinite"></animate>
         </circle>
         <circle circle="" cx="35" cy="5" r="5" width="10" height="10" fill="#333">
           <animate attributeName="opacity" attributeType="XML" values="1; 0.5; 1" begin="0.4s" dur="0.6s" repeatCount="indefinite"></animate>
         </circle>
      </symbol>
      <symbol id="lock" viewBox="0 0 24 24"><path fill-rule="evenodd" d="M0 14c0-1.1.9-2 2-2h20c1.1 0 2 .9 2 2v8c0 1.1-.9 2-2 2H2c-1.1 0-2-.9-2-2v-8zM12 0C7.03 0 3 4.03 3 9v3h18V9c0-4.97-4.03-9-9-9zm5 9c0-2.76-2.24-5-5-5S7 6.24 7 9h10zM7 9h10v3H7V9z"></path></symbol>
      <symbol id="logo" viewBox="0 0 165 30"><g fill="none" fill-rule="evenodd"><path fill="#C00" d="M41.366 27.972c.145.5.523.683 1.023.683.22 0 .663-.034.663-.347 0-.343-.434-.41-.69-.458-1.056-.206-2.31-.495-2.31-1.832 0-.55.272-1.09.722-1.41.46-.323 1.057-.43 1.614-.43.974 0 1.915.406 2.26 1.383l-1.426.434c-.163-.42-.476-.566-.91-.566-.23 0-.557.067-.557.36 0 .296.41.354.625.402.53.108 1.096.198 1.588.453.548.296.835.82.835 1.436 0 1.354-1.343 1.896-2.506 1.896-1.18 0-2.23-.493-2.533-1.718l1.6-.286zM49.58 26.643c.394 0 .868-.025.868-.55 0-.5-.426-.543-.82-.543h-.5v1.093h.453zm-.45 3.25h-1.745v-5.63h2.293c.55 0 1.164.017 1.647.296.523.31.835.868.835 1.475 0 .534-.206 1.044-.623 1.378-.434.354-.99.438-1.53.438h-.878v2.044zM56.295 27.103c0 .54.058 1.583.845 1.583.785 0 .843-1.042.843-1.583 0-.55-.08-1.65-.843-1.65-.76 0-.845 1.1-.845 1.65m3.53-.01c0 1.6-.982 2.883-2.685 2.883-1.704 0-2.687-1.284-2.687-2.882 0-1.68.974-2.915 2.687-2.915 1.712 0 2.686 1.234 2.686 2.914M64.66 26.535c.375 0 .826-.057.826-.54 0-.19-.1-.37-.27-.46-.148-.075-.327-.075-.49-.075h-.698v1.075h.63zm.727 3.36l-.818-2.15h-.542v2.15h-1.744V24.26h2.86c.49 0 1.03.065 1.45.345.464.296.687.796.687 1.346 0 .74-.328 1.183-.992 1.485l1.017 2.456h-1.918zM72.187 29.894h-1.64v-4.278H69.37V24.26h3.972v1.356h-1.155v4.278zM76.994 27.972c.148.5.524.683 1.025.683.22 0 .662-.034.662-.347 0-.343-.436-.41-.688-.458-1.057-.206-2.312-.495-2.312-1.832 0-.55.27-1.09.722-1.41.46-.323 1.057-.43 1.615-.43.973 0 1.914.406 2.258 1.383l-1.426.434c-.163-.42-.473-.566-.908-.566-.23 0-.558.067-.558.36 0 .296.41.354.623.402.532.108 1.098.198 1.588.453.55.296.836.82.836 1.436 0 1.354-1.343 1.896-2.506 1.896-1.18 0-2.227-.493-2.532-1.718l1.598-.286z"></path><path fill="#05A" d="M84.556 24.586h1.45v1.754h1.75v1.45h-1.75v1.75h-1.45v-1.75h-1.75v-1.45h1.75v-1.754z"></path><path fill="#C00" d="M91.435 27.103c0 .54.057 1.583.843 1.583.786 0 .844-1.042.844-1.583 0-.55-.083-1.65-.844-1.65-.762 0-.843 1.1-.843 1.65m3.53-.01c0 1.6-.984 2.883-2.687 2.883-1.704 0-2.687-1.284-2.687-2.882 0-1.68.975-2.915 2.688-2.915 1.712 0 2.686 1.234 2.686 2.914M101.975 27.88c0 .657-.073 1.184-.615 1.62-.482.375-1.07.476-1.662.476-.516 0-1.187-.115-1.622-.404-.597-.395-.713-.926-.713-1.6v-3.71h1.755v3.515c0 .188-.01.44.106.613.13.18.393.256.615.256.194 0 .44-.06.587-.19.22-.187.196-.484.196-.747V24.26h1.352v3.62zM107.158 29.894h-1.637v-4.278h-1.178V24.26h3.974v1.356h-1.158v4.278zM112.68 28.594c.23 0 .378.018.59-.095.156-.094.28-.217.37-.374.196-.325.26-.704.26-1.082 0-.377-.106-.87-.343-1.18-.27-.337-.533-.32-.925-.32h-.196v3.05h.245zm-1.974-4.332h2.072c.813 0 1.46.106 2.065.69.59.557.86 1.328.86 2.135 0 .74-.262 1.507-.777 2.042-.557.58-1.254.764-2.032.764h-2.188v-5.632zM119.773 27.103c0 .54.058 1.583.845 1.583.786 0 .843-1.042.843-1.583 0-.55-.08-1.65-.842-1.65s-.845 1.1-.845 1.65m3.53-.01c0 1.6-.982 2.883-2.685 2.883-1.705 0-2.69-1.284-2.69-2.882 0-1.68.978-2.915 2.69-2.915 1.71 0 2.686 1.234 2.686 2.914M127.39 27.103c0 .54.06 1.583.844 1.583.787 0 .845-1.042.845-1.583 0-.55-.083-1.65-.846-1.65-.76 0-.843 1.1-.843 1.65m3.53-.01c0 1.6-.982 2.883-2.686 2.883s-2.685-1.284-2.685-2.882c0-1.68.972-2.915 2.684-2.915 1.713 0 2.686 1.234 2.686 2.914M135.753 26.535c.378 0 .828-.057.828-.54 0-.19-.097-.37-.27-.46-.147-.075-.328-.075-.49-.075h-.697v1.075h.63zm.73 3.36l-.82-2.15h-.54v2.15h-1.745V24.26h2.86c.49 0 1.03.065 1.448.345.47.296.688.796.688 1.346 0 .74-.328 1.183-.99 1.485l1.017 2.456h-1.917zM142.11 27.972c.147.5.524.683 1.025.683.22 0 .663-.034.663-.347 0-.343-.436-.41-.69-.458-1.054-.206-2.31-.495-2.31-1.832 0-.55.27-1.09.722-1.41.46-.323 1.057-.43 1.615-.43.973 0 1.916.406 2.26 1.383l-1.426.434c-.164-.42-.476-.566-.91-.566-.23 0-.556.067-.556.36 0 .296.408.354.622.402.532.108 1.096.198 1.588.453.55.296.834.82.834 1.436 0 1.354-1.34 1.896-2.504 1.896-1.18 0-2.23-.493-2.53-1.718l1.595-.286z"></path><path fill="#05A" d="M50.815 13.087L48.647 5.92l-2.168 7.167h4.335zm7.132 7.945H53.16l-1.248-4.195h-6.59l-1.277 4.195H39.86l5.88-18.92L51.558.738l6.39 20.295zM68.952 10.976c0-.916-.594-1.91-2.17-1.91-2.403 0-2.7 2.38-2.7 4.315 0 1.844.03 4.465 2.523 4.465 1.545 0 2.198-.934 2.347-2.332l4.275-.05c-.357 3.75-3.178 5.98-6.86 5.98-4.572 0-7.273-3.24-7.273-7.704 0-4.643 2.79-8.006 7.54-8.006 3.505 0 6.22 2.3 6.508 5.242h-4.19zM84.54 13.917c-1.663.18-4.72.564-4.72 2.767 0 1.19.712 1.994 1.93 1.994.89 0 1.69-.476 2.196-1.25.623-.954.594-1.845.594-2.914v-.597zm.2 7.23c-.02-.718-.022-1.576.008-2.35-1.247 1.784-2.554 2.647-4.812 2.647-2.67 0-4.75-1.43-4.75-4.284 0-2.234 1.396-3.75 3.385-4.492 1.723-.652 4.13-.774 5.97-.953v-.355c0-.656.058-1.43-.386-1.995-.385-.507-1.13-.714-1.782-.714-1.396 0-2.634.84-2.634 2.325l-4.044-.047c.433-4.054 3.946-5.194 7.123-5.194 1.544 0 3.563.357 4.78 1.37 1.545 1.25 1.397 2.915 1.397 4.73v7.05c0 .773.022 1.545.01 2.262H84.74zM100.73 12.758c0-1.46-.118-3.958-2.107-3.958-2.493 0-2.582 3.273-2.582 5.088 0 1.635.237 4.403 2.406 4.403.8 0 1.544-.534 1.9-1.222.356-.68.385-1.485.385-2.23v-2.08zm.21 8.388v-2.35h-.06c-.832 1.605-2.08 2.648-4.008 2.648-4.246 0-5.436-4.163-5.436-7.674 0-3.602 1.13-8.036 5.524-8.036 1.694 0 2.82.506 3.77 1.905V1.307l4.366-.986v20.824h-4.157zM116.924 11.744c-.088-1.635-.623-3.153-2.523-3.153-1.93 0-2.672 1.43-2.82 3.154h5.344zm-5.315 2.59l-.03.742c0 1.788 1.01 3.243 2.91 3.243 1.336 0 2.727-1.01 2.727-2.406h4.094c0 .743-1.425 5.53-6.97 5.53-4.51 0-7.452-3.153-7.452-7.646 0-4.463 2.643-8.064 7.336-8.064 2.108 0 4.275.953 5.522 2.68 1.246 1.726 1.574 3.867 1.544 5.92h-9.68zM127.792 5.682v2.67h.06c.77-1.785 2.226-2.618 4.186-2.618 1.99 0 3.236.833 4.127 2.62.77-1.787 2.524-2.62 4.396-2.62 1.336 0 2.79.478 3.68 1.547 1.01 1.19.803 2.917.803 4.435v9.43h-4.364v-8c0-.597.057-2.083-.09-2.65-.238-.95-.952-1.22-1.87-1.22-.772 0-1.575.448-1.9 1.162-.327.713-.298 1.902-.298 2.707v8.002h-4.366v-8.002c0-1.578.3-3.9-1.96-3.9-2.284 0-2.196 2.264-2.196 3.9v8.002h-4.364V6.65l4.156-.968zM155.585 20.195c-1.127 3.422-1.722 7.383-5.998 7.383l-2.148.01.046-3.15 2.16.01c1.455 0 2.02-1.874 2.405-3.302l-5.49-15.114h4.283l2.88 8.986 2.868-8.986h3.597l-4.602 14.163z"></path><path fill="#C00" d="M32.23 11.07c4.38 6.187 2.7 12.278-4.244 13.67-4.922.986-8.837.254-13.24-1.45 3.755 1.33 7.158 1.585 10.52 1.074 6.72-1.02 8.405-6.464 3.562-12.204-4.363-5.173-13.25-8.097-19.852-7.05C2.002 6.216.05 11.782 4.066 17.008c.664.865 1.234 1.45 2.082 2.178-1.138-.92-2.135-1.935-2.9-3.014-4.43-6.25-1.902-12.676 6.827-14.14C17.593.768 27.768 4.764 32.23 11.07"></path><path fill="#05A" d="M14.393 17.397l5.71-.703-.266-8.074-5.444 8.777zM15.36 5.88s5.372.485 9.92 3.177l.847 15.127s-3.75.73-5.782.34l-.146-3.563-8.372.777-4.815 7.272-6.823.92L15.36 5.88zM17.983 2.37s4.2 1 7.066 2.616L24.792.29l-6.81 2.08zM162.162 7.935h.254c.287 0 .53-.105.53-.375 0-.193-.14-.384-.53-.384-.115 0-.193.007-.254.017v.742zm0 1.217h-.35V6.956c.184-.026.36-.052.62-.052.332 0 .55.07.68.165.132.096.2.245.2.454 0 .29-.19.463-.427.535v.016c.193.034.323.208.367.533.053.34.105.47.138.542h-.365c-.052-.073-.104-.272-.147-.56-.052-.28-.192-.385-.47-.385h-.246v.945zm.366-2.807c-.864 0-1.57.742-1.57 1.66 0 .935.706 1.668 1.58 1.668.872.01 1.57-.733 1.57-1.66 0-.926-.698-1.668-1.57-1.668h-.01zm.01-.306c1.072 0 1.926.873 1.926 1.965 0 1.11-.854 1.975-1.936 1.975-1.072 0-1.944-.865-1.944-1.975 0-1.092.872-1.966 1.944-1.966h.01z"></path></g></symbol>
      <symbol id="mapPin" viewBox="0 0 24 32"><path fill-rule="evenodd" d="M12 32c6.6-8 12-13.4 12-20S18.6 0 12 0 0 5.4 0 12s5.4 12 12 20zm0-16c2.2 0 4-1.8 4-4s-1.8-4-4-4-4 1.8-4 4 1.8 4 4 4z"></path></symbol>
      <symbol id="mastercard" viewBox="0 0 36 24"><path fill-rule="evenodd" d="M10.484 12.578c-.015.5-.265.844-.625.844-.204 0-.313-.14-.313-.344 0-.328.25-.5.734-.5h.204zm6.172-.562c.078-.375.282-.594.563-.594.5 0 .405.53.405.594h-.97zm8.438.562c-.016.5-.266.844-.625.844-.19 0-.314-.14-.314-.344 0-.328.25-.5.75-.5h.188zm4.984-.406c0 .672-.297 1.125-.703 1.125-.297 0-.438-.22-.438-.656 0-.656.282-1.11.672-1.11.296 0 .468.22.468.642zM7.5 9.97l-.86 2.546-.03-2.547H5.343l-.688 4.092h.828l.532-3.124.062 3.124h.61l1.11-3.14-.5 3.14h.874L8.86 9.97H7.5zm3.953 1.67c0-.64-.39-.968-1.156-.968-.313 0-.61.047-1.047.172-.11.687-.11.75-.11.75.14-.047.485-.156.922-.156.407 0 .563.078.563.312 0 .047-.016.094-.03.203-.142-.015-.267-.015-.36-.015-.97 0-1.547.468-1.547 1.28 0 .532.328.907.812.907.39 0 .688-.125.906-.406l-.015.342h.735c.016-.25.188-1.28.266-1.765.032-.28.063-.485.063-.656zm2.438-.906c-.234-.046-.578-.062-.78-.062-.985 0-1.313.5-1.313 1.125 0 .422.203.703.672.922.342.17.405.217.405.374 0 .203-.156.297-.5.297-.266 0-.516-.046-.797-.124-.11.734-.11.765-.11.765.188.048.376.095.907.095.922.016 1.36-.344 1.36-1.11 0-.453-.188-.734-.626-.937-.376-.156-.407-.203-.407-.36 0-.17.14-.265.422-.265.172 0 .406.016.64.047l.126-.766zm1.376 0l.093-.5h-.86c-.344 1.97-.39 2.282-.39 2.282-.063.343-.126.734-.126.875.016.485.25.735.704.735.203 0 .39-.03.624-.11l.126-.734c-.063.017-.14.033-.25.033-.204 0-.297-.08-.297-.25 0-.094.157-.89.25-1.516h.454l.11-.813h-.438zm3.171 1.14c0-.733-.468-1.202-1.187-1.202-.875 0-1.516.828-1.516 1.97 0 .967.5 1.483 1.485 1.483.296 0 .593-.047.89-.125l.14-.844c-.313.156-.594.22-.906.22-.5 0-.813-.204-.75-.688h1.734c.078-.33.11-.58.11-.813zm2.172-1.155c-.376-.08-.58.124-.844.53.015-.172.062-.344.047-.516h-.797c-.11 1.032-.282 2.079-.453 3.11l-.047.22.875-.002c.313-2.03.39-2.42.876-2.374.093-.422.234-.782.343-.97zm2.92-.642c-.124-.047-.577-.203-.952-.203-1.172 0-1.984 1.016-1.984 2.484 0 1.093.593 1.765 1.53 1.765.25 0 .454-.03.782-.125l.157-.922c-.297.14-.532.203-.75.203-.516 0-.813-.374-.813-1 0-.89.453-1.53 1.11-1.53.25 0 .468.063.78.22l.14-.892zm2.532 1.563c0-.64-.39-.968-1.14-.968-.328 0-.61.047-1.047.172-.125.687-.125.75-.125.75.14-.047.5-.156.922-.156.406 0 .562.078.562.312 0 .047 0 .094-.03.203-.126-.015-.25-.015-.36-.015-.97 0-1.532.468-1.532 1.28 0 .532.313.907.797.907.406 0 .703-.125.92-.406l-.014.342h.718c.032-.25.188-1.28.266-1.765.047-.28.063-.485.063-.656zm2.204-.92c-.36-.08-.563.124-.844.53.03-.172.062-.344.062-.516h-.812c-.11 1.032-.266 2.079-.453 3.11l-.048.22.875-.002c.328-2.03.39-2.42.89-2.374.08-.422.22-.782.33-.97zm2.203-.75l-.19 1.186c-.233-.312-.5-.453-.827-.453-.78 0-1.437.938-1.437 2.047 0 .828.422 1.375 1.062 1.375.328 0 .563-.11.813-.36l-.046.297h.828l.672-4.093h-.875zM32.202 12c0 4.688-3.797 8.5-8.5 8.5-1.922 0-3.687-.64-5.125-1.72 1.203-1.108 2.11-2.53 2.578-4.124h-.78c-.47 1.406-1.298 2.672-2.376 3.64-1.078-.968-1.906-2.233-2.375-3.64h-.78c.467 1.594 1.374 3.016 2.577 4.125-1.438 1.08-3.203 1.72-5.125 1.72-4.703 0-8.5-3.813-8.5-8.5 0-4.688 3.797-8.5 8.5-8.5 1.922 0 3.687.64 5.125 1.72-1.28 1.17-2.22 2.702-2.672 4.436h.78C15.985 8.11 16.845 6.75 18 5.703c1.156 1.047 2.016 2.406 2.47 3.953h.78c-.453-1.734-1.39-3.265-2.672-4.437 1.438-1.08 3.203-1.72 5.125-1.72 4.703 0 8.5 3.813 8.5 8.5zM36 2c0-1.094-.906-2-2-2H2C.906 0 0 .906 0 2v20c0 1.094.906 2 2 2h32c1.094 0 2-.906 2-2V2z"></path></symbol>
      <symbol id="minusCircle" viewBox="0 0 24 24"><path fill-rule="evenodd" d="M24 12c0-6.63-5.37-12-12-12S0 5.37 0 12s5.37 12 12 12 12-5.37 12-12zM4 12c0-1.1.9-2 2-2h12c1.1 0 2 .9 2 2s-.9 2-2 2H6c-1.1 0-2-.9-2-2z"></path></symbol>
      <symbol id="minus" viewBox="0 0 16 4"><rect width="16" height="4" fill-rule="evenodd" rx="2"></rect></symbol>
      <symbol id="paypal" viewBox="0 0 36 24"><path fill-rule="evenodd" d="M11.64 12.156c0-.61-.437-.97-1.015-.97-.766.002-1.36.61-1.36 1.377 0 .61.422.937 1 .937.766 0 1.376-.578 1.376-1.344zm12.266-2.328c0-.672-.593-.703-1.125-.703h-.28c-.11 0-.188.063-.203.172l-.266 1.672.5-.017c.814 0 1.376-.187 1.376-1.125zm5.485 2.328c0-.61-.437-.97-1.015-.97-.766.002-1.36.61-1.36 1.377 0 .61.438.937 1.016.937.75 0 1.36-.578 1.36-1.344zM8.017 9.484c0 1.797-1.094 2.86-2.875 2.86-.296 0-1.062-.156-1.124.297l-.282 1.72c-.015.17-.17.296-.343.296H2.204c-.125 0-.22-.125-.203-.25L3.016 8.03c.015-.17.17-.296.328-.296h2.5c1.156 0 2.172.438 2.172 1.75zm4.828 4.875c-.03.17-.172.296-.344.296h-1.078c-.14 0-.203-.11-.203-.25 0-.094.03-.234.06-.328-.39.438-1.092.688-1.655.688-1.22 0-1.984-.797-1.984-2.016 0-1.484 1.173-2.828 2.704-2.828.594 0 1.125.094 1.484.625.016-.172.03-.516.266-.516h1.187c.126 0 .22.126.204.25l-.64 4.08zm6.984-4.11c0 .047 0 .078-.03.11l-3.985 5.75c-.063.093-.172.156-.282.156H14.33c-.11 0-.203-.094-.203-.203 0-.188 1.11-1.64 1.28-1.875-.108-.33-1.327-3.86-1.327-3.938 0-.11.094-.22.203-.22h1.173c.156 0 .297.11.344.25l.687 2.345 1.657-2.438c.063-.093.172-.156.282-.156h1.203c.11 0 .203.11.203.22zm5.938-.766c0 1.797-1.094 2.86-2.875 2.86-.296 0-1.062-.156-1.124.297l-.282 1.813c-.03.11-.125.203-.25.203h-1.28c-.126 0-.22-.125-.204-.25l1.016-6.375c.015-.17.172-.296.343-.296h2.484c1.156 0 2.172.438 2.172 1.75zm4.828 4.875c-.032.17-.172.296-.344.296h-1.078c-.14 0-.203-.11-.203-.25 0-.094.046-.234.06-.328-.374.438-1.077.688-1.655.688-1.22 0-1.984-.797-1.984-2.016 0-1.484 1.172-2.828 2.704-2.828.61 0 1.14.094 1.484.625.016-.172.03-.516.266-.516h1.187c.126 0 .22.126.204.25l-.64 4.08zM34 7.97l-1.016 6.39c-.015.17-.172.296-.328.296h-1.03c-.126 0-.22-.11-.22-.22l.016-.03 1.015-6.5c.016-.093.11-.172.204-.172h1.157c.11 0 .203.094.203.22v.015zM6.125 10.062c.14-.844-.39-.938-1.094-.938h-.296c-.093 0-.187.063-.203.172l-.264 1.672.515-.017c.69 0 1.22-.094 1.345-.89zM36 2c0-1.094-.906-2-2-2H2C.906 0 0 .906 0 2v20c0 1.094.906 2 2 2h32c1.094 0 2-.906 2-2V2z"></path></symbol>
      <symbol id="pinterest" viewBox="0 0 46 46"><path fill="#BD081C" fill-rule="evenodd" d="M23 0C10.3 0 0 10.3 0 23c0 9.74 6.06 18.07 14.62 21.42-.2-1.82-.38-4.6.08-6.6l2.7-11.43s-.7-1.4-.7-3.43c0-3.2 1.86-5.58 4.17-5.58 1.96 0 2.9 1.46 2.9 3.23 0 1.97-1.25 4.92-1.9 7.66-.54 2.27 1.15 4.14 3.4 4.14 4.1 0 7.24-4.3 7.24-10.53 0-5.5-3.95-9.35-9.6-9.35-6.54 0-10.38 4.9-10.38 9.98 0 1.98.76 4.1 1.7 5.25.2.23.23.43.17.66-.2.73-.57 2.3-.65 2.6-.1.43-.33.52-.77.32-2.87-1.34-4.67-5.54-4.67-8.9 0-7.27 5.28-13.93 15.2-13.93 8 0 14.2 5.68 14.2 13.28 0 7.94-5 14.32-11.95 14.32-2.33 0-4.52-1.2-5.27-2.64l-1.43 5.47c-.52 2-1.92 4.5-2.86 6.02 2.14.67 4.43 1.03 6.8 1.03 12.7 0 23-10.3 23-23S35.7 0 23 0"></path></symbol>
      <symbol id="playCircle" viewBox="0 0 46 46" xmlns="http://www.w3.org/2000/symbol"><path d="M23 46c12.7 0 23-10.3 23-23S35.7 0 23 0 0 10.3 0 23s10.3 23 23 23zm10.3-24c1 .6 1 1.4 0 2l-14.6 8.4c-1 .5-1.7 0-1.7-1V14.6c0-1 .8-1.5 1.7-1L33.3 22z" fill-rule="evenodd"></path></symbol>
      <symbol id="plusCircle" viewBox="0 0 24 24"><path fill-rule="evenodd" d="M3.5 20.5c4.7 4.67 12.3 4.67 17 0 4.67-4.7 4.67-12.3 0-17-4.7-4.67-12.3-4.67-17 0-4.67 4.7-4.67 12.3 0 17zM10 14v3.66c0 .5.2 1.02.6 1.4.77.8 2.03.8 2.8 0 .4-.38.6-.9.6-1.4V14h3.66c.5 0 1.02-.2 1.4-.6.8-.77.8-2.03 0-2.8-.38-.4-.9-.6-1.4-.6H14V6.34c0-.5-.2-1.02-.6-1.4-.77-.8-2.03-.8-2.8 0-.4.38-.6.9-.6 1.4V10H6.34c-.5 0-1.02.2-1.4.6-.8.77-.8 2.03 0 2.8.38.4.9.6 1.4.6H10z"></path></symbol>
      <symbol id="plus" viewBox="0 0 16 16"><path fill-rule="evenodd" d="M10 6V2c0-1.1-.9-2-2-2S6 .9 6 2v4H2C.9 6 0 6.9 0 8s.9 2 2 2h4v4c0 1.1.9 2 2 2s2-.9 2-2v-4h4c1.1 0 2-.9 2-2s-.9-2-2-2h-4z"></path></symbol>
      <symbol id="question" viewBox="0 0 13 16"><path fill="#333" fill-rule="evenodd" d="M12.44 5c0 2.38-1.7 3.28-2.92 3.95-.76.43-1.23 1.2-1.23 1.55 0 .28-.24.5-.53.5H4.65c-.3 0-.5-.22-.5-.5v-.56c0-1.52 1.56-2.8 2.7-3.3 1-.45 1.44-.86 1.44-1.67 0-.7-.97-1.33-2-1.33-.6 0-1.13.2-1.4.38-.3.2-.63.5-1.4 1.43-.1.13-.26.2-.4.2-.12 0-.23-.04-.3-.1L.64 3.98c-.2-.15-.28-.43-.13-.65C1.92 1.1 3.9 0 6.54 0c2.8 0 5.9 2.14 5.9 5zM8.3 15.5c0 .28-.24.5-.53.5H4.65c-.3 0-.5-.22-.5-.5v-3c0-.28.2-.5.5-.5h3.12c.3 0 .52.22.52.5v3z"/></symbol>
      <symbol id="refresh" viewBox="0 0 24 24"><path fill-rule="evenodd" d="M23.6 14.5c0-.27-.2-.5-.5-.5h-3c-.23 0-.38.14-.46.36-.27.62-.45 1.22-.83 1.83C17.37 18.55 14.8 20 12 20c-2.02 0-3.97-.78-5.44-2.16L8.7 15.7c.2-.18.3-.43.3-.7 0-.55-.45-1-1-1H1c-.55 0-1 .45-1 1v7c0 .55.45 1 1 1 .27 0 .52-.1.7-.3l2.02-2C5.94 22.8 8.9 24 11.94 24c5.76 0 10.33-3.86 11.65-9.4v-.1zM24 2c0-.55-.45-1-1-1-.27 0-.52.1-.7.3l-2.03 2C18.05 1.23 15.07 0 12 0 6.23 0 1.62 3.84.28 9.4v.1c0 .27.22.5.5.5h3.1c.25 0 .4-.14.48-.36.26-.62.45-1.22.83-1.83C6.63 5.45 9.2 4 12 4c2.02 0 3.97.77 5.45 2.14L15.3 8.3c-.2.18-.3.43-.3.7 0 .55.45 1 1 1h7c.55 0 1-.45 1-1V2z"></path></symbol>
      <symbol id="search" viewBox="0 0 28 28"><path fill-rule="evenodd" d="M17.17 22.83C15.6 23.58 13.85 24 12 24 5.37 24 0 18.63 0 12S5.37 0 12 0s12 5.37 12 12c0 1.85-.42 3.6-1.17 5.17l4 4C27.55 21.9 28 22.9 28 24c0 2.2-1.8 4-4 4-1.1 0-2.1-.45-2.83-1.17l-4-4zM12 16c2.2 0 4-1.8 4-4s-1.8-4-4-4-4 1.8-4 4 1.8 4 4 4z"></path></symbol>
      <symbol id="timesCircle" viewBox="0 0 24 24"><path fill-rule="evenodd" d="M12 24c6.63 0 12-5.37 12-12S18.63 0 12 0 0 5.37 0 12s5.37 12 12 12zm0-9.17l2.6 2.58c.35.38.85.6 1.4.6 1.1 0 2-.9 2-2 0-.55-.22-1.05-.6-1.4L14.84 12l2.58-2.6c.38-.35.6-.85.6-1.4 0-1.1-.9-2-2-2-.55 0-1.05.22-1.4.6L12 9.16 9.4 6.6C9.06 6.2 8.56 6 8 6c-1.1 0-2 .9-2 2 0 .55.22 1.05.6 1.4L9.16 12 6.6 14.6c-.38.35-.6.85-.6 1.4 0 1.1.9 2 2 2 .55 0 1.05-.22 1.4-.6l2.6-2.57z"></path></symbol>
      <symbol id="times" viewBox="0 0 24 24"><path fill-rule="evenodd" d="M12 17.66l5.17 5.17C17.9 23.55 18.9 24 20 24c2.2 0 4-1.8 4-4 0-1.1-.45-2.1-1.17-2.83L17.66 12l5.17-5.17C23.55 6.1 24 5.1 24 4c0-2.2-1.8-4-4-4-1.1 0-2.1.45-2.83 1.17L12 6.34 6.83 1.17C6.1.45 5.1 0 4 0 1.8 0 0 1.8 0 4c0 1.1.45 2.1 1.17 2.83L6.34 12l-5.17 5.17C.45 17.9 0 18.9 0 20c0 2.2 1.8 4 4 4 1.1 0 2.1-.45 2.83-1.17L12 17.66z"></path></symbol>
      <symbol id="twitter" viewBox="0 0 46 46"><path fill="#55ACEE" fill-rule="evenodd" d="M23 46c12.7 0 23-10.3 23-23S35.7 0 23 0 0 10.3 0 23s10.3 23 23 23zm12-30.2c-.88.4-1.83.66-2.83.78 1.02-.6 1.8-1.57 2.17-2.72-.95.56-2 .97-3.13 1.2-.9-.96-2.17-1.56-3.58-1.56-2.72 0-4.93 2.2-4.93 4.92 0 .4.04.76.12 1.12-4.1-.2-7.72-2.16-10.15-5.14-.42.73-.67 1.57-.67 2.48 0 1.7.87 3.2 2.2 4.1-.8-.03-1.57-.25-2.24-.62v.06c0 2.38 1.7 4.37 3.95 4.83-.4.1-.83.17-1.28.17-.32 0-.63-.03-.93-.1.62 1.97 2.44 3.4 4.6 3.43-1.7 1.32-3.82 2.1-6.13 2.1-.4 0-.78-.02-1.17-.06 2.18 1.4 4.77 2.2 7.55 2.2 9.05 0 14-7.5 14-14v-.64c.95-.7 1.8-1.56 2.45-2.55z"></path></symbol>
      <symbol id="visa" viewBox="0 0 36 24"><path fill-rule="evenodd" d="M30.86 13.47l-.6-2.9-.18-.85-.35.95c-.8 2.22-1.03 2.8-1.03 2.8h2.16zM8.3 12.45C7.23 9.5 4.87 7.95 2 7.2l.03-.2h4.2c.55 0 1.04.2 1.16.84l.9 4.6zM11.1 7h2.74L9.77 17.02H7.03l-2.1-7.97c1.5.6 2.82 1.95 3.37 3.4l.26 1.4L11.1 7zm2.17 10.03L14.9 7h2.58l-1.62 10.03h-2.6zm12-9.78l-.36 2.17-.23-.12c-.47-.22-1.1-.4-1.94-.38-1 0-1.48.44-1.48.86 0 .47.55.8 1.45 1.25 1.5.72 2.2 1.58 2.2 2.72-.04 2.08-1.8 3.44-4.52 3.42-1.18 0-2.3-.25-2.9-.53l.36-2.25.35.16c.82.4 1.38.52 2.43.52.73 0 1.54-.3 1.54-.97 0-.43-.33-.76-1.34-1.24-1-.48-2.28-1.28-2.27-2.72.02-1.95 1.82-3.3 4.38-3.3 1 0 1.8.2 2.33.4zM31.9 7L34 17.03h-2.4l-.32-1.5h-3.3s-.12.27-.56 1.5H24.7l3.85-9.2c.26-.64.73-.83 1.36-.83h2zM36 2c0-1.1-.9-2-2-2H2C.9 0 0 .9 0 2v20c0 1.1.9 2 2 2h32c1.1 0 2-.9 2-2V2z"></path></symbol>
      <symbol id="youtube" viewBox="0 0 46 46"><path fill="#CD201F" fill-rule="evenodd" d="M23 46c12.7 0 23-10.3 23-23S35.7 0 23 0 0 10.3 0 23s10.3 23 23 23zm-3.3-18.85v-9l8.64 4.52-8.64 4.48zM38.68 16.6s-.3-2.2-1.27-3.17c-1.2-1.28-2.57-1.28-3.2-1.36-4.48-.32-11.2-.32-11.2-.32s-6.72 0-11.2.32c-.63.08-2 .08-3.2 1.36-.97.97-1.28 3.17-1.28 3.17S7 19.2 7 21.78v2.43c0 2.6.32 5.18.32 5.18s.3 2.2 1.27 3.18c1.2 1.27 2.8 1.23 3.52 1.37 2.56.24 10.88.32 10.88.32s6.72 0 11.2-.34c.63-.06 2-.07 3.2-1.34.97-.97 1.28-3.18 1.28-3.18S39 26.8 39 24.2V21.8c0-2.6-.32-5.18-.32-5.18z"></path></symbol>
      <symbol id="zoomIn" viewBox="0 0 24 24"><path fill-rule="evenodd" d="M15.5 18.34C13.94 19.4 12.05 20 10 20 4.48 20 0 15.52 0 10S4.48 0 10 0s10 4.48 10 10c0 2.04-.6 3.93-1.66 5.5l5.07 5.1c.38.35.6.85.6 1.4 0 1.1-.9 2-2 2-.55 0-1.05-.22-1.4-.6l-5.1-5.06zM10 16c3.3 0 6-2.7 6-6s-2.7-6-6-6-6 2.7-6 6 2.7 6 6 6zm1-9c0-.55-.45-1-1-1-.56 0-1 .45-1 1v2H7c-.55 0-1 .45-1 1 0 .56.45 1 1 1h2v2c0 .55.45 1 1 1 .56 0 1-.45 1-1v-2h2c.55 0 1-.45 1-1 0-.56-.45-1-1-1h-2V7z"></path></symbol>
      <symbol id="zoomOut" viewBox="0 0 24 24"><path fill-rule="evenodd" d="M15.5 18.34C13.94 19.4 12.05 20 10 20 4.48 20 0 15.52 0 10S4.48 0 10 0s10 4.48 10 10c0 2.04-.6 3.93-1.66 5.5l5.07 5.1c.38.35.6.85.6 1.4 0 1.1-.9 2-2 2-.55 0-1.05-.22-1.4-.6l-5.1-5.06zM10 16c3.3 0 6-2.7 6-6s-2.7-6-6-6-6 2.7-6 6 2.7 6 6 6zm-4-6c0-.55.45-1 1-1h6c.55 0 1 .44 1 1 0 .55-.45 1-1 1H7c-.55 0-1-.44-1-1z"></path></symbol>
   </defs>
</svg>