<svg xmlns="http://www.w3.org/2000/svg" style="display: none;">
  <defs>
    <symbol id="add-circle" viewBox="0 0 26 26">
      <path fill-rule="evenodd" d="M15,15 L19.0059397,15 C20.1054862,15 21,14.1045695 21,13 C21,11.8877296 20.1072288,11 19.0059397,11 L15,11 L15,6.99406028 C15,5.89451376 14.1045695,5 13,5 C11.8877296,5 11,5.8927712 11,6.99406028 L11,11 L6.99406028,11 C5.89451376,11 5,11.8954305 5,13 C5,14.1122704 5.8927712,15 6.99406028,15 L11,15 L11,19.0059397 C11,20.1054862 11.8954305,21 13,21 C14.1122704,21 15,20.1072288 15,19.0059397 L15,15 L15,15 L15,15 L15,15 L15,15 Z M22.1923882,3.80761184 C17.1155724,-1.26920395 8.88442764,-1.26920395 3.80761184,3.80761184 C-1.26920395,8.88442764 -1.26920395,17.1155724 3.80761184,22.1923882 C8.88442764,27.2692039 17.1155724,27.2692039 22.1923882,22.1923882 C27.2692039,17.1155724 27.2692039,8.88442764 22.1923882,3.80761184 L22.1923882,3.80761184 L22.1923882,3.80761184 Z"></path>
    </symbol>
    <symbol id="caret-left" viewBox="0 0 14 24">
      <path d="M14,21.9966599 L14,2.00334014 C14,0.22212559 11.8457162,-0.669909942 10.5857864,0.589598947 L0.585786438,10.5862588 C-0.195262146,11.3670465 -0.195262146,12.6329535 0.585786438,13.4137412 L10.5857864,23.4104011 C11.8457162,24.6699099 14,23.7778744 14,21.9966599 L14,21.9966599 Z"></path>
    </symbol>
    <symbol id="caret-right" viewBox="0 0 14 24">
      <path d="M0,2.00334014 L0,21.9966599 C0,23.7778744 2.15428384,24.6699099 3.41421356,23.4104011 L13.4142136,13.4137412 C14.1952621,12.6329535 14.1952621,11.3670465 13.4142136,10.5862588 L3.41421356,0.589598947 C2.15428384,-0.669909942 0,0.22212559 0,2.00334014 Z"></path>
    </symbol>
    <symbol id="invodo360" viewBox="0 0 46 26">
      <path d="M10.9999899,5.32055113 C4.40195354,6.90261062 0,9.75014918 0,13 C0,17.1583321 7.20704015,20.6579838 17,21.6906905 L17,17.6946907 C9.44684682,16.901473 4,14.6516069 4,12 C4,10.1234505 6.72801606,8.4481102 11,7.34788896 L11,5.3205487 L10.9999899,5.32055113 L10.9999899,5.32055113 L10.9999899,5.32055113 L10.9999899,5.32055113 Z M35.0000101,5.32055113 C41.5980465,6.90261062 46,9.75014918 46,13 C46,17.1583321 38.7929599,20.6579838 29,21.6906905 L29,17.6946907 C36.5531532,16.901473 42,14.6516069 42,12 C42,10.1234505 39.2719839,8.4481102 35,7.34788896 L35,5.3205487 L35.0000101,5.32055113 L35.0000101,5.32055113 L35.0000101,5.32055113 L35.0000101,5.32055113 Z M17,14 L27,20 L17,26 L17,14 L17,14 Z M16.383265,9.55617978 C16.383265,9.84269663 16.2458735,9.97752809 15.9539166,9.97752809 L15.6963076,9.97752809 C15.4043507,9.97752809 15.2669593,9.84269663 15.2669593,9.55617978 L15.2669593,7.92134831 L13,7.92134831 L13,9.80898876 C13,11.2752809 13.7384792,12 15.2326114,12 L16.5378304,12 C18.0319626,12 18.7704418,11.2752809 18.7704418,9.80898876 L18.7704418,7.31460674 C18.7704418,6.45505618 18.4613109,6 17.7400057,5.79775281 C18.3754413,5.56179775 18.7360939,5.05617978 18.7360939,4.04494382 L18.7360939,2.19101124 C18.7360939,0.724719101 17.9976147,0 16.5034825,0 L15.2669593,0 C13.772827,0 13.0343479,0.724719101 13.0343479,2.19101124 L13.0343479,3.85955056 L15.3013071,3.85955056 L15.3013071,2.44382022 C15.3013071,2.15730337 15.4386986,2.02247191 15.7306555,2.02247191 L15.9195687,2.02247191 C16.2115256,2.02247191 16.3489171,2.15730337 16.3489171,2.44382022 L16.3489171,4.4494382 C16.3489171,4.73595506 16.2115256,4.87078652 15.9195687,4.87078652 L14.1334796,4.87078652 L14.1334796,6.94382022 L15.9539166,6.94382022 C16.2458735,6.94382022 16.383265,7.07865169 16.383265,7.36516854 L16.383265,9.55617978 L16.383265,9.55617978 Z M22.3731514,2.44382022 C22.3731514,2.15730337 22.5105429,2.02247191 22.8024998,2.02247191 L23.0257609,2.02247191 C23.3177178,2.02247191 23.4551092,2.15730337 23.4551092,2.44382022 L23.4551092,3.80898876 L25.7735903,3.80898876 L25.7735903,2.19101124 C25.7735903,0.724719101 25.0351112,0 23.5409789,0 L22.218586,0 C20.7244538,0 19.9859746,0.724719101 19.9859746,2.19101124 L19.9859746,9.80898876 C19.9859746,11.2752809 20.7244538,12 22.218586,12 L23.5925007,12 C25.086633,12 25.8251121,11.2752809 25.8251121,9.80898876 L25.8251121,6.55617978 C25.8251121,5.39325843 25.1038069,4.6011236 23.8844576,4.6011236 L23.7985879,4.6011236 C23.249022,4.6011236 22.7853258,4.73595506 22.3731514,4.92134831 L22.3731514,2.44382022 L22.3731514,2.44382022 Z M33,9.80898876 L33,2.19101124 C33,0.724719101 32.2615208,0 30.7673886,0 L29.2904303,0 C27.7962981,0 27.0578189,0.724719101 27.0578189,2.19101124 L27.0578189,9.80898876 C27.0578189,11.2752809 27.7962981,12 29.2904303,12 L30.7673886,12 C32.2615208,12 33,11.2752809 33,9.80898876 L33,9.80898876 Z M36,4 C37.1045695,4 38,3.1045695 38,2 C38,0.8954305 37.1045695,0 36,0 C34.8954305,0 34,0.8954305 34,2 C34,3.1045695 34.8954305,4 36,4 L36,4 L36,4 L36,4 Z M30.6128232,2.44382022 L30.6128232,9.55617978 C30.6128232,9.84269663 30.4754317,9.97752809 30.1834749,9.97752809 L29.8743441,9.97752809 C29.5823872,9.97752809 29.4449957,9.84269663 29.4449957,9.55617978 L29.4449957,2.44382022 C29.4449957,2.15730337 29.5823872,2.02247191 29.8743441,2.02247191 L30.1834749,2.02247191 C30.4754317,2.02247191 30.6128232,2.15730337 30.6128232,2.44382022 L30.6128232,2.44382022 L30.6128232,2.44382022 L30.6128232,2.44382022 Z M22.3731514,6.74157303 C22.5105429,6.69101124 22.7681519,6.64044944 23.0257609,6.64044944 C23.3692396,6.64044944 23.4551092,6.75842697 23.4551092,7.02808989 L23.4551092,9.55617978 C23.4551092,9.84269663 23.3177178,9.97752809 23.0257609,9.97752809 L22.8024998,9.97752809 C22.5105429,9.97752809 22.3731514,9.84269663 22.3731514,9.55617978 L22.3731514,6.74157303 L22.3731514,6.74157303 L22.3731514,6.74157303 L22.3731514,6.74157303 Z"></path>
    </symbol>
    <symbol id="subtract-circle" viewBox="0 0 26 26">
      <path fill-rule="evenodd" d="M13,26 C20.1797017,26 26,20.1797017 26,13 C26,5.82029825 20.1797017,0 13,0 C5.82029825,0 0,5.82029825 0,13 C0,20.1797017 5.82029825,26 13,26 Z M5,13 C5,11.8954305 5.89451376,11 6.99406028,11 L19.0059397,11 C20.1072288,11 21,11.8877296 21,13 C21,14.1045695 20.1054862,15 19.0059397,15 L6.99406028,15 C5.8927712,15 5,14.1122704 5,13 Z"></path>
    </symbol>
    <symbol id="times-circle" viewBox="0 0 26 26">
      <path fill-rule="evenodd" d="M15.8284271,13 L18.6610543,10.1673729 C19.4385511,9.38987606 19.4379028,8.12419433 18.6568542,7.34314575 C17.8703603,6.55665184 16.6113561,6.56021676 15.8326271,7.33894573 L13,10.1715729 L10.1673729,7.33894573 C9.38987606,6.56144893 8.12419433,6.56209717 7.34314575,7.34314575 C6.55665184,8.12963966 6.56021676,9.38864388 7.33894573,10.1673729 L10.1715729,13 L7.33894573,15.8326271 C6.56144893,16.6101239 6.56209717,17.8758057 7.34314575,18.6568542 C8.12963966,19.4433482 9.38864388,19.4397832 10.1673729,18.6610543 L13,15.8284271 L15.8326271,18.6610543 C16.6101239,19.4385511 17.8758057,19.4379028 18.6568542,18.6568542 C19.4433482,17.8703603 19.4397832,16.6113561 18.6610543,15.8326271 L15.8284271,13 L15.8284271,13 L15.8284271,13 L15.8284271,13 Z M13,0 C5.82029825,0 0,5.82029825 0,13 C0,20.1797017 5.82029825,26 13,26 C20.1797017,26 26,20.1797017 26,13 C26,5.82029825 20.1797017,0 13,0 L13,0 Z"></path>
    </symbol>
  </defs>
</svg>