<svg style="display: none;">
  <defs>
    <symbol id="amex" viewBox="0 0 36 24"><path fill-rule="evenodd" d="M1.86 8.656l.687-1.687.703 1.686H1.86zm9.703 8.22H9.078v-.845h2.22v-.858h-2.22v-.766h2.547l1.094 1.235-1.158 1.235zm2.468-1.22l1.548-1.672v3.39l-1.547-1.718zm4.5-.734c0 .39-.28.562-.64.562h-1.296v-1.078h1.312c.344 0 .625.14.625.516zm4.517-.063c0 .42-.328.5-.672.5H21.11v-.954h1.28c.313 0 .657.063.657.453zm-4.344-7.282c0 .406-.328.484-.672.484h-1.264v-.937h1.28c.313 0 .657.063.657.453zm7.172 1.078l.703-1.687.688 1.686h-1.39zM10.922 6.234H9.234L8.03 9.11 6.704 6.233H5.047v4.016l-1.72-4.016h-1.5L.018 10.47h1.092l.39-.94h2.11l.39.94h2.063V7.155L7.53 10.47h.892l1.47-3.314v3.313h1.03V6.233zm8.687 8.688c0-1.063-.75-1.39-1.704-1.39h-3.234l-1.28 1.39-1.25-1.39H8.077v4.234h4l1.297-1.407 1.25 1.406h1.97v-1.422c1.155 0 3.014.28 3.014-1.422zm-4.547-5.328h-2.376V8.75H15v-.86h-2.313v-.765h2.376v-.89h-3.39v4.234h3.39v-.876zM36 18.328c-.453.22-.984.266-1.484.266H31.89v-.375c-.36.28-.92.374-1.374.374H22.25v-1.36c0-.172-.03-.187-.188-.187h-.125v1.547H19.22V17c-.454.188-.94.203-1.407.203h-.33v1.39h-3.296l-.812-.92-.86.92h-5.36V12.69h5.454l.78.906.844-.906h3.657c.422 0 1.094.03 1.422.343v-.342h3.266c.438 0 .985.078 1.36.343v-.342h4.937v.343c.297-.28.828-.342 1.22-.342h2.764v.343c.36-.264.828-.342 1.265-.342H36V2.094C36 .954 35.078 0 33.937 0H2.064C.923 0 0 .953 0 2.094v6.11l1.22-2.798h2.64l.343.688v-.688h3.094l.672 1.516.67-1.516h9.813c.406 0 .828.063 1.14.344v-.344h2.688v.344c.517-.28 1.126-.344 1.704-.344h3.89l.36.688v-.688h2.89l.392.688v-.688h2.812v5.907h-2.844l-.53-.907v.906h-3.548l-.39-.953h-.875l-.39.953c-1.063 0-2.453.17-3.47-.36v.36h-4.358V9.969c0-.11-.016-.22-.156-.22l-.157.016v1.546H9.155v-.734l-.312.735H7.078l-.297-.72v.72H3.376l-.39-.954h-.86l-.39.953H0v10.593C0 23.046.922 24 2.063 24h31.875c1.14 0 2.062-.953 2.062-2.094v-3.578zm-11.844-3.656c0-1-.86-1.14-1.656-1.14h-2.406v4.234h1.015V16.22h1.078c.67 0 .906.124.906.843v.703h1.015v-.844c0-.547-.11-.922-.672-1.125.468-.188.718-.656.718-1.125zm-4.328-7.297c0-1-.86-1.125-1.672-1.125l-2.39-.016v4.235h1V8.936h1.093c1.124 0 .89.626.906 1.532h1.015v-.83c0-.562-.093-.92-.67-1.124.453-.188.718-.657.718-1.14zm8.266 9.516l-2.36-.015v-.844h2.313v-.858h-2.313v-.766h2.36v-.875H24.72v4.236h3.374v-.875zM21.437 6.235h-1.03v4.235h1.03V6.233zm10.83 10.188c0-2.03-2.626-.688-2.626-1.61 0-.343.297-.39.563-.39h1.86v-.89H30.03c-.78 0-1.436.405-1.436 1.265 0 2.015 2.61.765 2.61 1.672 0 .327-.282.39-.532.39h-1.97v.906h1.97c.906 0 1.594-.344 1.594-1.344zm3.733-.78c-.64-.845-2.406-.08-2.406-.83 0-.343.28-.39.562-.39H36v-.89h-2.016c-.78 0-1.453.405-1.453 1.265 0 2.015 2.61.78 2.61 1.672 0 .31-.265.39-.515.39h-1.953v.906h1.953c.5 0 1.078-.11 1.375-.547v-1.58zM33.422 6.25h-1.03v2.938L30.608 6.25h-1.547v4l-1.704-4h-1.516l-1.438 3.328h-.453c-.812 0-.984-.5-.984-1.22 0-1.452.968-1.217 2.03-1.202v-.922h-.984c-1.438 0-2.078.735-2.078 2.157 0 1.36.625 2.08 2.015 2.08h1.172l.39-.94h2.094l.406.94h2.062V7.296l1.906 3.172h1.438V6.25z"/></symbol>
    <symbol id="caret-down" viewBox="0 0 20 12"><path fill-rule="evenodd" d="M19.4 3.4c.38-.35.6-.85.6-1.4 0-1.1-.9-2-2-2H2C.9 0 0 .9 0 2c0 .55.22 1.05.6 1.4l8 8c.35.38.85.6 1.4.6.55 0 1.05-.22 1.4-.6l8-8z"/></symbol>
    <symbol id="caret-left" viewBox="0 0 12 20"><path fill-rule="evenodd" d="M8.6.6C8.94.2 9.44 0 10 0c1.1 0 2 .9 2 2v16c0 1.1-.9 2-2 2-.55 0-1.05-.22-1.4-.6l-8-8C.2 11.06 0 10.56 0 10c0-.55.22-1.05.6-1.4l8-8z"/></symbol>
    <symbol id="caret-right" viewBox="0 0 12 20"><path fill-rule="evenodd" d="M3.4.6C3.06.2 2.56 0 2 0 .9 0 0 .9 0 2v16c0 1.1.9 2 2 2 .55 0 1.05-.22 1.4-.6l8-8c.38-.35.6-.85.6-1.4 0-.55-.22-1.05-.6-1.4l-8-8z"/></symbol>
    <symbol id="caret-up" viewBox="0 0 20 12"><path fill-rule="evenodd" d="M19.4 8.6c.38.35.6.85.6 1.4 0 1.1-.9 2-2 2H2c-1.1 0-2-.9-2-2 0-.55.22-1.05.6-1.4l8-8C8.94.2 9.44 0 10 0c.55 0 1.05.22 1.4.6l8 8z"/></symbol>
    <symbol id="check-circle" viewBox="0 0 24 24"><path fill-rule="evenodd" d="M12 24c6.63 0 12-5.37 12-12S18.63 0 12 0 0 5.37 0 12s5.37 12 12 12zM7.4 10.6c-.35-.38-.85-.6-1.4-.6-1.1 0-2 .9-2 2 0 .55.22 1.05.6 1.4l4 4c.35.38.85.6 1.4.6.55 0 1.05-.22 1.4-.6l8-8c.38-.35.6-.85.6-1.4 0-1.1-.9-2-2-2-.55 0-1.05.22-1.4.6L10 13.16 7.4 10.6z"/></symbol>
    <symbol id="check" viewBox="0 0 32 24"><path fill-rule="evenodd" d="M6.83 9.17C6.1 8.45 5.1 8 4 8c-2.2 0-4 1.8-4 4 0 1.1.45 2.1 1.17 2.83l8 8C9.9 23.55 10.9 24 12 24s2.1-.45 2.83-1.17l16-16C31.55 6.1 32 5.1 32 4c0-2.2-1.8-4-4-4-1.1 0-2.1.45-2.83 1.17L12 14.34 6.83 9.17z"/></symbol>
    <symbol id="chevron-down" viewBox="0 0 24 16"><path fill-rule="evenodd" d="M17.17 1.18C17.9.45 18.9 0 20 0c2.2 0 4 1.8 4 4 0 1.1-.45 2.1-1.17 2.83l-8.03 8.05c-.73.7-1.72 1.12-2.8 1.12-1.1 0-2.1-.45-2.82-1.17l-8.02-8C.44 6.1 0 5.1 0 4c0-2.2 1.8-4 4-4 1.1 0 2.1.45 2.84 1.18L12 6.36l5.17-5.18z"/></symbol>
    <symbol id="chevron-left" viewBox="0 0 16 24"><path fill-rule="evenodd" d="M14.82 6.83C15.55 6.1 16 5.1 16 4c0-2.2-1.8-4-4-4-1.1 0-2.1.45-2.83 1.17L1.12 9.2C.42 9.93 0 10.92 0 12c0 1.1.45 2.1 1.17 2.82l8 8.02C9.9 23.56 10.9 24 12 24c2.2 0 4-1.8 4-4 0-1.1-.45-2.1-1.18-2.84L9.64 12l5.18-5.17z"/></symbol>
    <symbol id="chevron-right" viewBox="0 0 16 24"><path fill-rule="evenodd" d="M1.18 6.83C.45 6.1 0 5.1 0 4c0-2.2 1.8-4 4-4 1.1 0 2.1.45 2.83 1.17l8.05 8.03c.7.73 1.12 1.72 1.12 2.8 0 1.1-.45 2.1-1.17 2.82l-8 8.02C6.1 23.56 5.1 24 4 24c-2.2 0-4-1.8-4-4 0-1.1.45-2.1 1.18-2.84L6.36 12 1.18 6.84z"/></symbol>
    <symbol id="chevron-up" viewBox="0 0 24 16"><path fill-rule="evenodd" d="M17.17 14.82C17.9 15.55 18.9 16 20 16c2.2 0 4-1.8 4-4 0-1.1-.45-2.1-1.17-2.83L14.8 1.12C14.07.42 13.08 0 12 0c-1.1 0-2.1.45-2.82 1.17l-8.02 8C.44 9.9 0 10.9 0 12c0 2.2 1.8 4 4 4 1.1 0 2.1-.45 2.84-1.18L12 9.64l5.17 5.18z"/></symbol>
    <symbol id="color-wheel" viewBox="0 0 25 24"><g fill-rule="evenodd"><path fill="#F00" d="M11.32.06C9.64.23 8 .76 6.52 1.6 5.05 2.47 3.77 3.63 2.78 5c-.23.3-.45.65-.65 1l10.4 6V0c-.4 0-.8.02-1.2.06z"/><path fill="#FFA500" d="M22.26 5c.23.3.45.65.65 1l-10.38 6V0c.4 0 .8.02 1.2.06 1.7.17 3.33.7 4.8 1.55 1.48.86 2.75 2.02 3.74 3.4z"/><path fill="#FF0" d="M23.46 7.07c-.16-.36-.34-.72-.55-1.07l-10.38 6 10.4 6c.2-.35.38-.7.54-1.07.7-1.54 1.06-3.23 1.06-4.93 0-1.7-.36-3.4-1.06-4.93z"/><path fill="green" d="M22.26 19c.23-.3.45-.65.65-1l-10.38-6v12c.4 0 .8-.02 1.2-.06 1.7-.17 3.33-.7 4.8-1.55 1.48-.86 2.75-2.02 3.74-3.4z"/><path fill="#00F" d="M11.32 23.94c-1.68-.17-3.32-.7-4.8-1.55-1.47-.86-2.75-2.02-3.74-3.4-.23-.3-.45-.65-.65-1l10.4-6v12c-.4 0-.8-.02-1.2-.06z"/><path fill="#9400D3" d="M1.58 7.07C.88 8.6.52 10.3.52 12c0 1.7.37 3.4 1.06 4.93.16.36.35.72.55 1.07l10.4-6-10.4-6c-.2.35-.4.7-.55 1.07z"/></g></symbol>
    <symbol id="crosshair" viewBox="0 0 28 28"><path fill-rule="evenodd" d="M14 20c3.3 0 6-2.7 6-6s-2.7-6-6-6-6 2.7-6 6 2.7 6 6 6zm-9.8-8C5 8.08 8.08 5 12 4.2V2c0-1.1.9-2 2-2s2 .9 2 2v2.2c3.92.8 7 3.88 7.8 7.8H26c1.1 0 2 .9 2 2s-.9 2-2 2h-2.2c-.8 3.92-3.88 7-7.8 7.8V26c0 1.1-.9 2-2 2s-2-.9-2-2v-2.2C8.08 23 5 19.92 4.2 16H2c-1.1 0-2-.9-2-2s.9-2 2-2h2.2zm9.8 4c1.1 0 2-.9 2-2s-.9-2-2-2-2 .9-2 2 .9 2 2 2z"/></symbol>
    <symbol id="discover" viewBox="0 0 36 24"><path fill-rule="evenodd" d="M4.9 10.14c0-.5-.2-.98-.57-1.3-.33-.3-.74-.42-1.4-.42h-.26v3.44h.27c.65 0 1.08-.13 1.4-.4.35-.34.55-.82.55-1.32zm27.74-1.02c0-.5-.34-.76-.98-.76h-.32v1.58h.3c.66 0 1-.28 1-.8V9.1zm-26.7 1.02c0 .77-.35 1.5-.94 2-.5.42-1.08.6-1.86.6H1.66v-5.2h1.48c1.66 0 2.8 1.07 2.8 2.6zm.47 2.6v-5.2h1.02v5.2h-1zm5-1.58c0 1-.73 1.7-1.8 1.7-.76.02-1.32-.3-1.8-.98l.67-.63c.23.45.62.7 1.1.7.46 0 .8-.32.8-.75 0-.22-.1-.4-.3-.53-.12-.08-.32-.15-.7-.3-.96-.34-1.3-.7-1.3-1.43 0-.85.7-1.5 1.63-1.5.57 0 1.1.2 1.53.6l-.53.68c-.26-.3-.5-.42-.82-.42-.44 0-.76.25-.76.57 0 .3.18.44.8.66 1.14.42 1.5.8 1.5 1.63zm4.35 1.4c-.45.22-.83.3-1.27.3-1.54 0-2.75-1.2-2.75-2.72 0-1.52 1.24-2.72 2.77-2.72.44 0 .8.1 1.25.3v1.22c-.42-.42-.78-.6-1.27-.6-.95 0-1.7.8-1.7 1.8 0 1.05.72 1.8 1.75 1.8.45 0 .8-.17 1.22-.58v1.2zM35 22c0 .55-.45 1-1 1H9.48C23.7 20.33 32.5 15.33 35 13.77V22zM21.7 10.17c0 1.56-1.26 2.83-2.82 2.83-1.57 0-2.83-1.27-2.83-2.83s1.26-2.83 2.82-2.83c1.57 0 2.83 1.27 2.83 2.83zm2.38 2.7h-.55L21.3 7.54h1.12l1.4 3.5 1.4-3.5h1.1l-2.24 5.34zm2.7-.14v-5.2h2.88v.9H27.8v1.15h1.8v.87h-1.8v1.4h1.86v.88h-2.88zm6.1 0l-1.4-2.07h-.14v2.07h-1v-5.2h1.5c1.18 0 1.85.56 1.85 1.55 0 .8-.43 1.3-1.2 1.47l1.64 2.18H32.9zM36 2.1C36 .93 35.08 0 33.94 0H2.06C.92 0 0 .94 0 2.1v19.8C0 23.07.92 24 2.06 24h31.88c1.14 0 2.06-.94 2.06-2.1V2.1z"/></symbol>
    <symbol id="facebook" viewBox="0 0 46 46"><path fill="#3B5998" fill-rule="evenodd" d="M23 46c12.7 0 23-10.3 23-23S35.7 0 23 0 0 10.3 0 23s10.3 23 23 23zm10.68-35H12.32c-.73 0-1.32.6-1.32 1.32v21.36c0 .73.6 1.32 1.32 1.32h11.5v-9.3H20.7V22.1h3.12V19.4c0-3.1 1.9-4.78 4.66-4.78 1.32 0 2.46.1 2.8.15V18h-1.93c-1.5 0-1.8.72-1.8 1.77v2.3h3.6l-.47 3.64h-3.12V35h6.12c.73 0 1.32-.6 1.32-1.32V12.32c0-.73-.6-1.32-1.32-1.32z"/></symbol>
    <symbol id="info-circle" viewBox="0 0 24 24"><path fill-rule="evenodd" d="M14 19.5c0 .28-.22.5-.5.5h-3c-.28 0-.5-.22-.5-.5v-3c0-.28.22-.5.5-.5h3c.28 0 .5.22.5.5v3zM18 9c0 2.38-1.63 3.28-2.8 3.95-.75.43-1.2 1.2-1.2 1.55 0 .28-.22.5-.5.5h-3c-.28 0-.5-.22-.5-.5v-.56c0-1.52 1.52-2.8 2.63-3.3.95-.45 1.37-.86 1.37-1.67 0-.7-.92-1.33-1.92-1.33-.56 0-1.08.2-1.35.38-.3.2-.6.5-1.34 1.43-.1.13-.26.2-.4.2-.1 0-.22-.04-.3-.1L6.64 7.98c-.2-.15-.26-.43-.12-.65C7.86 5.1 9.77 4 12.32 4 15 4 18 6.14 18 9zm6 3c0-6.63-5.38-12-12-12C5.37 0 0 5.38 0 12c0 6.63 5.38 12 12 12 6.63 0 12-5.38 12-12z"/></symbol>
    <symbol id="instagram" viewBox="0 0 46 46"><path fill="#3F729B" fill-rule="evenodd" d="M23 46c12.7 0 23-10.3 23-23S35.7 0 23 0 0 10.3 0 23s10.3 23 23 23zm9.33-28.33c0 .36-.3.66-.66.66h-3.34c-.36 0-.66-.3-.66-.66v-3.34c0-.36.3-.66.66-.66h3.34c.36 0 .66.3.66.66v3.34zm0 14c0 .36-.3.66-.66.66H14.33c-.36 0-.66-.3-.66-.66V21h2.27c-.18.64-.27 1.3-.27 2 0 4.05 3.28 7.33 7.33 7.33 4.05 0 7.33-3.28 7.33-7.33 0-.7-.1-1.36-.27-2h2.27v10.67zM23 18.33c2.58 0 4.67 2.1 4.67 4.67 0 2.58-2.1 4.67-4.67 4.67-2.58 0-4.67-2.1-4.67-4.67 0-2.58 2.1-4.67 4.67-4.67zM31.67 11H14.33C12.5 11 11 12.5 11 14.33v17.34C11 33.5 12.5 35 14.33 35h17.34C33.5 35 35 33.5 35 31.67V14.33C35 12.5 33.5 11 31.67 11z"/></symbol>
    <symbol id="invodo-360" viewBox="0 0 46 26" xmlns="http://www.w3.org/2000/symbol"><path d="M11 5.32C4.4 6.9 0 9.75 0 13c0 4.16 7.2 7.66 17 8.7v-4C9.45 16.9 4 14.64 4 12c0-1.88 2.73-3.55 7-4.65V5.32zm24 0C41.6 6.9 46 9.75 46 13c0 4.16-7.2 7.66-17 8.7v-4c7.55-.8 13-3.05 13-5.7 0-1.88-2.73-3.55-7-4.65V5.32zM17 14l10 6-10 6V14zm-.62-4.44c0 .28-.13.42-.43.42h-.25c-.3 0-.43-.14-.43-.42V7.92H13v1.9c0 1.46.74 2.18 2.23 2.18h1.3c1.5 0 2.24-.72 2.24-2.2V7.3c0-.84-.3-1.3-1.03-1.5.64-.24 1-.74 1-1.76V2.2C18.74.7 18 0 16.5 0h-1.23c-1.5 0-2.24.72-2.24 2.2v1.66h2.27V2.44c0-.28.14-.42.43-.42h.2c.28 0 .42.14.42.42v2c0 .3-.14.43-.43.43h-1.8v2.07h1.83c.3 0 .43.14.43.43v2.2zm6-7.12c0-.28.13-.42.42-.42h.23c.3 0 .43.14.43.42V3.8h2.3V2.2c0-1.48-.72-2.2-2.22-2.2h-1.32C20.72 0 20 .72 20 2.2v7.6c0 1.48.72 2.2 2.22 2.2h1.37c1.5 0 2.23-.72 2.23-2.2V6.57c0-1.17-.73-1.96-1.95-1.96h-.08c-.55 0-1 .14-1.43.32V2.44zM33 9.8V2.2C33 .7 32.26 0 30.77 0H29.3c-1.5 0-2.24.72-2.24 2.2v7.6c0 1.48.74 2.2 2.23 2.2h1.47c1.5 0 2.23-.72 2.23-2.2zM36 4c1.1 0 2-.9 2-2s-.9-2-2-2-2 .9-2 2 .9 2 2 2zm-5.4-1.56v7.12c0 .28-.12.42-.42.42h-.3c-.3 0-.44-.14-.44-.42V2.44c0-.28.14-.42.43-.42h.3c.3 0 .44.14.44.42zm-8.23 4.3c.14-.05.4-.1.66-.1.34 0 .43.12.43.4v2.52c0 .28-.14.42-.43.42h-.23c-.3 0-.43-.14-.43-.42V6.74z" fill-rule="evenodd"/></symbol>
    <symbol id="lock" viewBox="0 0 24 24"><path fill-rule="evenodd" d="M0 14c0-1.1.9-2 2-2h20c1.1 0 2 .9 2 2v8c0 1.1-.9 2-2 2H2c-1.1 0-2-.9-2-2v-8zM12 0C7.03 0 3 4.03 3 9v3h18V9c0-4.97-4.03-9-9-9zm5 9c0-2.76-2.24-5-5-5S7 6.24 7 9h10zM7 9h10v3H7V9z"/></symbol>
    <symbol id="logo" viewBox="0 0 418 76"><g fill="none" fill-rule="evenodd"><path fill="#C00" d="M105 70.86c.37 1.27 1.33 1.73 2.6 1.73.56 0 1.7-.1 1.7-.9 0-.85-1.1-1.02-1.76-1.15-2.68-.52-5.87-1.25-5.87-4.64 0-1.38.7-2.75 1.83-3.56 1.17-.82 2.7-1.1 4.1-1.1 2.48 0 4.87 1.04 5.74 3.5l-3.62 1.1c-.4-1.05-1.2-1.42-2.3-1.42-.6 0-1.42.17-1.42.9 0 .76 1.04.9 1.58 1.03 1.35.27 2.8.5 4.03 1.15 1.4.74 2.13 2.07 2.13 3.63 0 3.44-3.4 4.8-6.36 4.8-3 0-5.65-1.24-6.42-4.34l4.05-.74zm19.7 4.87h-4.42V61.46h5.83c1.4 0 2.96.05 4.2.76 1.3.78 2.1 2.2 2.1 3.74 0 1.35-.52 2.64-1.58 3.5-1.1.88-2.5 1.1-3.88 1.1h-2.23v5.17zm27.16-7.1c0 4.06-2.5 7.3-6.8 7.3-4.34 0-6.83-3.24-6.83-7.3 0-4.25 2.47-7.38 6.82-7.38 4.34 0 6.8 3.13 6.8 7.4zm14.12 7.1l-2.07-5.45h-1.37v5.45h-4.43V61.46h7.26c1.25 0 2.62.17 3.68.88 1.18.75 1.75 2 1.75 3.4 0 1.88-.85 3-2.53 3.77l2.58 6.23h-4.87zm17.26 0h-4.16V64.9h-3v-3.44h10.1v3.43h-2.94v10.83zm12.2-4.87c.38 1.27 1.34 1.73 2.6 1.73.57 0 1.7-.1 1.7-.9 0-.85-1.12-1.02-1.76-1.15-2.68-.52-5.87-1.25-5.87-4.64 0-1.38.7-2.75 1.85-3.56 1.16-.82 2.68-1.1 4.1-1.1 2.47 0 4.86 1.04 5.73 3.5l-3.62 1.1c-.4-1.05-1.2-1.42-2.3-1.42-.58 0-1.42.17-1.42.9 0 .76 1.04.9 1.58 1.03 1.35.27 2.8.5 4.04 1.15 1.4.74 2.12 2.07 2.12 3.63 0 3.44-3.4 4.8-6.36 4.8-3 0-5.66-1.24-6.43-4.34l4.05-.74zm45.62-2.22c0 4.05-2.5 7.3-6.82 7.3s-6.82-3.25-6.82-7.3c0-4.26 2.47-7.4 6.82-7.4s6.82 3.14 6.82 7.4zm17.8 2c0 1.65-.2 3-1.56 4.1-1.23.94-2.72 1.2-4.22 1.2-1.3 0-3.02-.3-4.12-1.02-1.5-1-1.8-2.35-1.8-4.06v-9.4h4.45v8.9c0 .5-.02 1.12.28 1.56.33.46 1 .65 1.56.65.5 0 1.12-.15 1.5-.48.55-.5.5-1.24.5-1.9v-8.74h3.42v9.17zm13.16 5.1h-4.16V64.88h-3v-3.44h10.1v3.43H272v10.83zm9-14.28h5.26c2.06 0 3.7.27 5.24 1.75 1.5 1.42 2.2 3.38 2.2 5.42 0 1.87-.68 3.82-2 5.17-1.4 1.47-3.17 1.93-5.14 1.93h-5.56V61.46zM313 68.64c0 4.05-2.5 7.3-6.82 7.3s-6.82-3.25-6.82-7.3c0-4.26 2.48-7.4 6.82-7.4s6.82 3.14 6.82 7.4zm19.33 0c0 4.05-2.5 7.3-6.8 7.3-4.34 0-6.83-3.25-6.83-7.3 0-4.26 2.47-7.4 6.82-7.4 4.34 0 6.8 3.14 6.8 7.4zm14.12 7.1l-2.07-5.46H343v5.45h-4.43V61.46h7.26c1.25 0 2.62.17 3.68.88 1.2.75 1.76 2 1.76 3.4 0 1.88-.84 3-2.52 3.77l2.58 6.23h-4.87zm14.3-4.88c.36 1.27 1.32 1.73 2.6 1.73.55 0 1.67-.1 1.67-.9 0-.85-1.1-1.02-1.75-1.15-2.67-.52-5.86-1.25-5.86-4.64 0-1.38.7-2.75 1.84-3.56 1.17-.82 2.7-1.1 4.1-1.1 2.47 0 4.86 1.04 5.74 3.5l-3.62 1.1c-.42-1.05-1.2-1.42-2.3-1.42-.6 0-1.42.17-1.42.9 0 .76 1.04.9 1.58 1.03 1.35.27 2.78.5 4.03 1.15 1.4.74 2.12 2.07 2.12 3.63 0 3.44-3.4 4.8-6.36 4.8-2.98 0-5.65-1.24-6.42-4.34l4.06-.74zM81.8 28.06c11.13 15.66 6.87 31.1-10.76 34.62-12.5 2.5-22.43.64-33.6-3.68 9.52 3.37 18.16 4.02 26.7 2.72 17.06-2.58 21.33-16.37 9.04-30.92-11.08-13.1-33.63-20.5-50.4-17.85C5.08 15.75.12 29.85 10.32 43.1c1.7 2.18 3.13 3.66 5.3 5.5-2.9-2.33-5.43-4.9-7.38-7.63C-3 25.14 3.42 8.87 25.58 5.14c19.08-3.2 44.9 6.93 56.23 22.9zm44.06 39.44c1 0 2.2-.07 2.2-1.4 0-1.27-1.08-1.37-2.08-1.37h-1.27v2.77h1.16zm17.04 1.16c0 1.37.15 4 2.15 4s2.14-2.63 2.14-4c0-1.4-.22-4.18-2.15-4.18s-2.15 2.8-2.15 4.18zm21.23-1.44c.96 0 2.1-.14 2.1-1.37 0-.48-.25-.94-.68-1.16-.38-.2-.83-.2-1.25-.2h-1.77v2.72h1.6zm67.97 1.44c0 1.37.15 4 2.14 4 2 0 2.14-2.63 2.14-4 0-1.4-.2-4.18-2.14-4.18-1.93 0-2.14 2.8-2.14 4.18zm53.94 3.78c.57 0 .95.04 1.5-.24.4-.24.7-.55.93-.95.5-.82.66-1.78.66-2.74 0-.94-.27-2.2-.87-2.98-.7-.85-1.35-.8-2.35-.8h-.5v7.72h.64zm18-3.78c0 1.37.15 4 2.14 4 2 0 2.14-2.63 2.14-4 0-1.4-.2-4.18-2.14-4.18-1.93 0-2.14 2.8-2.14 4.18zm19.34 0c0 1.37.14 4 2.14 4s2.14-2.63 2.14-4c0-1.4-.2-4.18-2.14-4.18-1.94 0-2.14 2.8-2.14 4.18zm21.22-1.44c.96 0 2.1-.14 2.1-1.37 0-.48-.25-.94-.68-1.16-.38-.2-.84-.2-1.25-.2H343v2.72h1.6z"/><path fill="#05A" d="M214.64 62.3h3.68v4.43h4.44v3.67h-4.44v4.44h-3.68V70.4h-4.44v-3.67h4.44V62.3zm-67.55-9.02h-12.15l-3.17-10.63h-16.73l-3.24 10.63H101.2L116.1 5.35l14.78-3.48 16.2 51.4zm27.93-25.48c0-2.32-1.5-4.83-5.5-4.83-6.1 0-6.86 6.03-6.86 10.93 0 4.67.07 11.3 6.4 11.3 3.92 0 5.58-2.36 5.96-5.9l10.85-.12c-.9 9.5-8.06 15.14-17.4 15.14-11.62 0-18.47-8.2-18.47-19.5 0-11.77 7.1-20.3 19.15-20.3 8.9 0 15.78 5.83 16.52 13.28h-10.64zm40.08 25.77c-.05-1.82-.05-4 .03-5.95-3.17 4.52-6.5 6.7-12.22 6.7-6.77 0-12.04-3.6-12.04-10.85 0-5.66 3.54-9.5 8.6-11.38 4.36-1.66 10.47-1.97 15.14-2.42v-.9c0-1.66.15-3.62-.98-5.06-.98-1.28-2.87-1.8-4.52-1.8-3.55 0-6.7 2.12-6.7 5.88l-10.26-.12c1.1-10.26 10.02-13.15 18.1-13.15 3.9 0 9.03.9 12.12 3.47 3.92 3.16 3.55 7.38 3.55 11.98v17.86c0 1.96.06 3.9.04 5.73H215.1zm41.13 0v-5.95h-.15c-2.1 4.06-5.28 6.7-10.18 6.7-10.77 0-13.8-10.54-13.8-19.44 0-9.12 2.87-20.35 14.03-20.35 4.3 0 7.16 1.28 9.57 4.82V3.3L266.78.8v52.77h-10.55zM283.3 36.3l-.06 1.9c0 4.52 2.56 8.2 7.4 8.2 3.38 0 6.9-2.55 6.9-6.08h10.4c0 1.88-3.62 14-17.7 14-11.45 0-18.9-7.98-18.9-19.37 0-11.3 6.7-20.42 18.6-20.42 5.36 0 10.86 2.4 14.03 6.78 3.16 4.4 4 9.8 3.92 15l-24.6.02zm41.1-21.9v6.76h.14c1.96-4.52 5.66-6.63 10.63-6.63 5.05 0 8.22 2.1 10.48 6.63 1.96-4.52 6.4-6.63 11.16-6.63 3.4 0 7.1 1.2 9.35 3.92 2.56 3 2.03 7.38 2.03 11.23v23.9H357.1V33.3c0-1.5.15-5.28-.22-6.7-.6-2.42-2.42-3.1-4.75-3.1-1.96 0-4 1.13-4.82 2.94-.82 1.8-.75 4.82-.75 6.86v20.27h-11.08V33.3c0-4 .76-9.88-4.97-9.88-5.8 0-5.58 5.73-5.58 9.88v20.27h-11.08V16.85l10.55-2.46zm70.54 36.76c-2.86 8.67-4.37 18.7-15.22 18.7l-5.45.03.12-8 5.47.03c3.7 0 5.12-4.74 6.1-8.36l-13.94-38.3h10.88l7.32 22.78 7.28-22.77h9.13l-11.7 35.88zM39 14.9s13.63 1.23 25.18 8.04l2.14 38.33s-9.5 1.84-14.68.86l-.37-9.03-21.25 1.97L17.8 73.5.48 75.82l38.5-60.93zM45.64 6s10.66 2.54 17.93 6.63L62.94.73 45.64 6zm366.94 9.3c2.72 0 4.88 2.2 4.88 4.98 0 2.8-2.16 5-4.9 5-2.73 0-4.95-2.2-4.95-5 0-2.77 2.22-4.98 4.94-4.98h.02zM255.7 32.32c0-3.7-.3-10.03-5.35-10.03-6.33 0-6.55 8.28-6.55 12.88 0 4.15.6 11.16 6.1 11.16 2.03 0 3.92-1.36 4.82-3.1.9-1.73.98-3.76.98-5.65V32.3zm-41.1 2.94c-4.22.45-11.98 1.43-11.98 7 0 3.02 1.8 5.06 4.9 5.06 2.26 0 4.3-1.2 5.57-3.17 1.57-2.42 1.5-4.67 1.5-7.38v-1.5zm82.2-5.5c-.22-4.15-1.58-8-6.4-8-4.9 0-6.78 3.62-7.16 8h13.57zm111.78-9.48c0 2.37 1.8 4.23 4 4.23 2.23.03 4-1.85 4-4.2s-1.77-4.22-4-4.22c-2.2 0-4 1.87-4 4.2zm3.06 2.9h-.9v-5.56c.48-.06.92-.13 1.58-.13.85 0 1.4.17 1.73.4.34.26.5.63.5 1.16 0 .73-.47 1.17-1.07 1.36v.04c.48.1.82.53.93 1.35.14.87.27 1.2.36 1.38h-.93c-.13-.18-.26-.68-.37-1.4-.14-.72-.5-1-1.2-1h-.62v2.4zm0-3.08h.64c.73 0 1.35-.26 1.35-.95 0-.5-.36-.97-1.35-.97-.3 0-.48.02-.64.04v1.88zM129 33.15L123.5 15l-5.52 18.15h11zM36.53 44.07l14.5-1.78-.68-20.46-13.82 22.23z"/></g></symbol>
    <symbol id="map-pin" viewBox="0 0 24 32"><path fill-rule="evenodd" d="M12 32c6.6-8 12-13.4 12-20S18.6 0 12 0 0 5.4 0 12s5.4 12 12 20zm0-16c2.2 0 4-1.8 4-4s-1.8-4-4-4-4 1.8-4 4 1.8 4 4 4z"/></symbol>
    <symbol id="mastercard" viewBox="0 0 36 24"><path fill-rule="evenodd" d="M10.484 12.578c-.015.5-.265.844-.625.844-.204 0-.313-.14-.313-.344 0-.328.25-.5.734-.5h.204zm6.172-.562c.078-.375.282-.594.563-.594.5 0 .405.53.405.594h-.97zm8.438.562c-.016.5-.266.844-.625.844-.19 0-.314-.14-.314-.344 0-.328.25-.5.75-.5h.188zm4.984-.406c0 .672-.297 1.125-.703 1.125-.297 0-.438-.22-.438-.656 0-.656.282-1.11.672-1.11.296 0 .468.22.468.642zM7.5 9.97l-.86 2.546-.03-2.547H5.343l-.688 4.092h.828l.532-3.124.062 3.124h.61l1.11-3.14-.5 3.14h.874L8.86 9.97H7.5zm3.953 1.67c0-.64-.39-.968-1.156-.968-.313 0-.61.047-1.047.172-.11.687-.11.75-.11.75.14-.047.485-.156.922-.156.407 0 .563.078.563.312 0 .047-.016.094-.03.203-.142-.015-.267-.015-.36-.015-.97 0-1.547.468-1.547 1.28 0 .532.328.907.812.907.39 0 .688-.125.906-.406l-.015.342h.735c.016-.25.188-1.28.266-1.765.032-.28.063-.485.063-.656zm2.438-.906c-.234-.046-.578-.062-.78-.062-.985 0-1.313.5-1.313 1.125 0 .422.203.703.672.922.342.17.405.217.405.374 0 .203-.156.297-.5.297-.266 0-.516-.046-.797-.124-.11.734-.11.765-.11.765.188.048.376.095.907.095.922.016 1.36-.344 1.36-1.11 0-.453-.188-.734-.626-.937-.376-.156-.407-.203-.407-.36 0-.17.14-.265.422-.265.172 0 .406.016.64.047l.126-.766zm1.376 0l.093-.5h-.86c-.344 1.97-.39 2.282-.39 2.282-.063.343-.126.734-.126.875.016.485.25.735.704.735.203 0 .39-.03.624-.11l.126-.734c-.063.017-.14.033-.25.033-.204 0-.297-.08-.297-.25 0-.094.157-.89.25-1.516h.454l.11-.813h-.438zm3.171 1.14c0-.733-.468-1.202-1.187-1.202-.875 0-1.516.828-1.516 1.97 0 .967.5 1.483 1.485 1.483.296 0 .593-.047.89-.125l.14-.844c-.313.156-.594.22-.906.22-.5 0-.813-.204-.75-.688h1.734c.078-.33.11-.58.11-.813zm2.172-1.155c-.376-.08-.58.124-.844.53.015-.172.062-.344.047-.516h-.797c-.11 1.032-.282 2.079-.453 3.11l-.047.22.875-.002c.313-2.03.39-2.42.876-2.374.093-.422.234-.782.343-.97zm2.92-.642c-.124-.047-.577-.203-.952-.203-1.172 0-1.984 1.016-1.984 2.484 0 1.093.593 1.765 1.53 1.765.25 0 .454-.03.782-.125l.157-.922c-.297.14-.532.203-.75.203-.516 0-.813-.374-.813-1 0-.89.453-1.53 1.11-1.53.25 0 .468.063.78.22l.14-.892zm2.532 1.563c0-.64-.39-.968-1.14-.968-.328 0-.61.047-1.047.172-.125.687-.125.75-.125.75.14-.047.5-.156.922-.156.406 0 .562.078.562.312 0 .047 0 .094-.03.203-.126-.015-.25-.015-.36-.015-.97 0-1.532.468-1.532 1.28 0 .532.313.907.797.907.406 0 .703-.125.92-.406l-.014.342h.718c.032-.25.188-1.28.266-1.765.047-.28.063-.485.063-.656zm2.204-.92c-.36-.08-.563.124-.844.53.03-.172.062-.344.062-.516h-.812c-.11 1.032-.266 2.079-.453 3.11l-.048.22.875-.002c.328-2.03.39-2.42.89-2.374.08-.422.22-.782.33-.97zm2.203-.75l-.19 1.186c-.233-.312-.5-.453-.827-.453-.78 0-1.437.938-1.437 2.047 0 .828.422 1.375 1.062 1.375.328 0 .563-.11.813-.36l-.046.297h.828l.672-4.093h-.875zM32.202 12c0 4.688-3.797 8.5-8.5 8.5-1.922 0-3.687-.64-5.125-1.72 1.203-1.108 2.11-2.53 2.578-4.124h-.78c-.47 1.406-1.298 2.672-2.376 3.64-1.078-.968-1.906-2.233-2.375-3.64h-.78c.467 1.594 1.374 3.016 2.577 4.125-1.438 1.08-3.203 1.72-5.125 1.72-4.703 0-8.5-3.813-8.5-8.5 0-4.688 3.797-8.5 8.5-8.5 1.922 0 3.687.64 5.125 1.72-1.28 1.17-2.22 2.702-2.672 4.436h.78C15.985 8.11 16.845 6.75 18 5.703c1.156 1.047 2.016 2.406 2.47 3.953h.78c-.453-1.734-1.39-3.265-2.672-4.437 1.438-1.08 3.203-1.72 5.125-1.72 4.703 0 8.5 3.813 8.5 8.5zM36 2c0-1.094-.906-2-2-2H2C.906 0 0 .906 0 2v20c0 1.094.906 2 2 2h32c1.094 0 2-.906 2-2V2z"/></symbol>
    <symbol id="minus-circle" viewBox="0 0 24 24"><path fill-rule="evenodd" d="M24 12c0-6.63-5.37-12-12-12S0 5.37 0 12s5.37 12 12 12 12-5.37 12-12zM4 12c0-1.1.9-2 2-2h12c1.1 0 2 .9 2 2s-.9 2-2 2H6c-1.1 0-2-.9-2-2z"/></symbol>
    <symbol id="minus" viewBox="0 0 16 4"><rect width="16" height="4" fill-rule="evenodd" rx="2"/></symbol>
    <symbol id="paypal" viewBox="0 0 36 24"><path fill-rule="evenodd" d="M11.64 12.156c0-.61-.437-.97-1.015-.97-.766.002-1.36.61-1.36 1.377 0 .61.422.937 1 .937.766 0 1.376-.578 1.376-1.344zm12.266-2.328c0-.672-.593-.703-1.125-.703h-.28c-.11 0-.188.063-.203.172l-.266 1.672.5-.017c.814 0 1.376-.187 1.376-1.125zm5.485 2.328c0-.61-.437-.97-1.015-.97-.766.002-1.36.61-1.36 1.377 0 .61.438.937 1.016.937.75 0 1.36-.578 1.36-1.344zM8.017 9.484c0 1.797-1.094 2.86-2.875 2.86-.296 0-1.062-.156-1.124.297l-.282 1.72c-.015.17-.17.296-.343.296H2.204c-.125 0-.22-.125-.203-.25L3.016 8.03c.015-.17.17-.296.328-.296h2.5c1.156 0 2.172.438 2.172 1.75zm4.828 4.875c-.03.17-.172.296-.344.296h-1.078c-.14 0-.203-.11-.203-.25 0-.094.03-.234.06-.328-.39.438-1.092.688-1.655.688-1.22 0-1.984-.797-1.984-2.016 0-1.484 1.173-2.828 2.704-2.828.594 0 1.125.094 1.484.625.016-.172.03-.516.266-.516h1.187c.126 0 .22.126.204.25l-.64 4.08zm6.984-4.11c0 .047 0 .078-.03.11l-3.985 5.75c-.063.093-.172.156-.282.156H14.33c-.11 0-.203-.094-.203-.203 0-.188 1.11-1.64 1.28-1.875-.108-.33-1.327-3.86-1.327-3.938 0-.11.094-.22.203-.22h1.173c.156 0 .297.11.344.25l.687 2.345 1.657-2.438c.063-.093.172-.156.282-.156h1.203c.11 0 .203.11.203.22zm5.938-.766c0 1.797-1.094 2.86-2.875 2.86-.296 0-1.062-.156-1.124.297l-.282 1.813c-.03.11-.125.203-.25.203h-1.28c-.126 0-.22-.125-.204-.25l1.016-6.375c.015-.17.172-.296.343-.296h2.484c1.156 0 2.172.438 2.172 1.75zm4.828 4.875c-.032.17-.172.296-.344.296h-1.078c-.14 0-.203-.11-.203-.25 0-.094.046-.234.06-.328-.374.438-1.077.688-1.655.688-1.22 0-1.984-.797-1.984-2.016 0-1.484 1.172-2.828 2.704-2.828.61 0 1.14.094 1.484.625.016-.172.03-.516.266-.516h1.187c.126 0 .22.126.204.25l-.64 4.08zM34 7.97l-1.016 6.39c-.015.17-.172.296-.328.296h-1.03c-.126 0-.22-.11-.22-.22l.016-.03 1.015-6.5c.016-.093.11-.172.204-.172h1.157c.11 0 .203.094.203.22v.015zM6.125 10.062c.14-.844-.39-.938-1.094-.938h-.296c-.093 0-.187.063-.203.172l-.264 1.672.515-.017c.69 0 1.22-.094 1.345-.89zM36 2c0-1.094-.906-2-2-2H2C.906 0 0 .906 0 2v20c0 1.094.906 2 2 2h32c1.094 0 2-.906 2-2V2z"/></symbol>
    <symbol id="pinterest" viewBox="0 0 46 46"><path fill="#BD081C" fill-rule="evenodd" d="M23 0C10.3 0 0 10.3 0 23c0 9.74 6.06 18.07 14.62 21.42-.2-1.82-.38-4.6.08-6.6l2.7-11.43s-.7-1.4-.7-3.43c0-3.2 1.86-5.58 4.17-5.58 1.96 0 2.9 1.46 2.9 3.23 0 1.97-1.25 4.92-1.9 7.66-.54 2.27 1.15 4.14 3.4 4.14 4.1 0 7.24-4.3 7.24-10.53 0-5.5-3.95-9.35-9.6-9.35-6.54 0-10.38 4.9-10.38 9.98 0 1.98.76 4.1 1.7 5.25.2.23.23.43.17.66-.2.73-.57 2.3-.65 2.6-.1.43-.33.52-.77.32-2.87-1.34-4.67-5.54-4.67-8.9 0-7.27 5.28-13.93 15.2-13.93 8 0 14.2 5.68 14.2 13.28 0 7.94-5 14.32-11.95 14.32-2.33 0-4.52-1.2-5.27-2.64l-1.43 5.47c-.52 2-1.92 4.5-2.86 6.02 2.14.67 4.43 1.03 6.8 1.03 12.7 0 23-10.3 23-23S35.7 0 23 0"/></symbol>
    <symbol id="play-circle" viewBox="0 0 46 46" xmlns="http://www.w3.org/2000/symbol"><path d="M23 46c12.7 0 23-10.3 23-23S35.7 0 23 0 0 10.3 0 23s10.3 23 23 23zm10.3-24c1 .6 1 1.4 0 2l-14.6 8.4c-1 .5-1.7 0-1.7-1V14.6c0-1 .8-1.5 1.7-1L33.3 22z" fill-rule="evenodd"/></symbol>
    <symbol id="plus-circle" viewBox="0 0 24 24"><path fill-rule="evenodd" d="M3.5 20.5c4.7 4.67 12.3 4.67 17 0 4.67-4.7 4.67-12.3 0-17-4.7-4.67-12.3-4.67-17 0-4.67 4.7-4.67 12.3 0 17zM10 14v3.66c0 .5.2 1.02.6 1.4.77.8 2.03.8 2.8 0 .4-.38.6-.9.6-1.4V14h3.66c.5 0 1.02-.2 1.4-.6.8-.77.8-2.03 0-2.8-.38-.4-.9-.6-1.4-.6H14V6.34c0-.5-.2-1.02-.6-1.4-.77-.8-2.03-.8-2.8 0-.4.38-.6.9-.6 1.4V10H6.34c-.5 0-1.02.2-1.4.6-.8.77-.8 2.03 0 2.8.38.4.9.6 1.4.6H10z"/></symbol>
    <symbol id="plus" viewBox="0 0 16 16"><path fill-rule="evenodd" d="M10 6V2c0-1.1-.9-2-2-2S6 .9 6 2v4H2C.9 6 0 6.9 0 8s.9 2 2 2h4v4c0 1.1.9 2 2 2s2-.9 2-2v-4h4c1.1 0 2-.9 2-2s-.9-2-2-2h-4z"/></symbol>
    <symbol id="search" viewBox="0 0 28 28"><path fill-rule="evenodd" d="M17.17 22.83C15.6 23.58 13.85 24 12 24 5.37 24 0 18.63 0 12S5.37 0 12 0s12 5.37 12 12c0 1.85-.42 3.6-1.17 5.17l4 4C27.55 21.9 28 22.9 28 24c0 2.2-1.8 4-4 4-1.1 0-2.1-.45-2.83-1.17l-4-4zM12 16c2.2 0 4-1.8 4-4s-1.8-4-4-4-4 1.8-4 4 1.8 4 4 4z"/></symbol>
    <symbol id="times-circle" viewBox="0 0 24 24"><path fill-rule="evenodd" d="M12 24c6.63 0 12-5.37 12-12S18.63 0 12 0 0 5.37 0 12s5.37 12 12 12zm0-9.17l2.6 2.58c.35.38.85.6 1.4.6 1.1 0 2-.9 2-2 0-.55-.22-1.05-.6-1.4L14.84 12l2.58-2.6c.38-.35.6-.85.6-1.4 0-1.1-.9-2-2-2-.55 0-1.05.22-1.4.6L12 9.16 9.4 6.6C9.06 6.2 8.56 6 8 6c-1.1 0-2 .9-2 2 0 .55.22 1.05.6 1.4L9.16 12 6.6 14.6c-.38.35-.6.85-.6 1.4 0 1.1.9 2 2 2 .55 0 1.05-.22 1.4-.6l2.6-2.57z"/></symbol>
    <symbol id="times" viewBox="0 0 24 24"><path fill-rule="evenodd" d="M12 17.66l5.17 5.17C17.9 23.55 18.9 24 20 24c2.2 0 4-1.8 4-4 0-1.1-.45-2.1-1.17-2.83L17.66 12l5.17-5.17C23.55 6.1 24 5.1 24 4c0-2.2-1.8-4-4-4-1.1 0-2.1.45-2.83 1.17L12 6.34 6.83 1.17C6.1.45 5.1 0 4 0 1.8 0 0 1.8 0 4c0 1.1.45 2.1 1.17 2.83L6.34 12l-5.17 5.17C.45 17.9 0 18.9 0 20c0 2.2 1.8 4 4 4 1.1 0 2.1-.45 2.83-1.17L12 17.66z"/></symbol>
    <symbol id="twitter" viewBox="0 0 46 46"><path fill="#55ACEE" fill-rule="evenodd" d="M23 46c12.7 0 23-10.3 23-23S35.7 0 23 0 0 10.3 0 23s10.3 23 23 23zm12-30.2c-.88.4-1.83.66-2.83.78 1.02-.6 1.8-1.57 2.17-2.72-.95.56-2 .97-3.13 1.2-.9-.96-2.17-1.56-3.58-1.56-2.72 0-4.93 2.2-4.93 4.92 0 .4.04.76.12 1.12-4.1-.2-7.72-2.16-10.15-5.14-.42.73-.67 1.57-.67 2.48 0 1.7.87 3.2 2.2 4.1-.8-.03-1.57-.25-2.24-.62v.06c0 2.38 1.7 4.37 3.95 4.83-.4.1-.83.17-1.28.17-.32 0-.63-.03-.93-.1.62 1.97 2.44 3.4 4.6 3.43-1.7 1.32-3.82 2.1-6.13 2.1-.4 0-.78-.02-1.17-.06 2.18 1.4 4.77 2.2 7.55 2.2 9.05 0 14-7.5 14-14v-.64c.95-.7 1.8-1.56 2.45-2.55z"/></symbol>
    <symbol id="visa" viewBox="0 0 36 24"><path fill-rule="evenodd" d="M30.86 13.47l-.6-2.9-.18-.85-.35.95c-.8 2.22-1.03 2.8-1.03 2.8h2.16zM8.3 12.45C7.23 9.5 4.87 7.95 2 7.2l.03-.2h4.2c.55 0 1.04.2 1.16.84l.9 4.6zM11.1 7h2.74L9.77 17.02H7.03l-2.1-7.97c1.5.6 2.82 1.95 3.37 3.4l.26 1.4L11.1 7zm2.17 10.03L14.9 7h2.58l-1.62 10.03h-2.6zm12-9.78l-.36 2.17-.23-.12c-.47-.22-1.1-.4-1.94-.38-1 0-1.48.44-1.48.86 0 .47.55.8 1.45 1.25 1.5.72 2.2 1.58 2.2 2.72-.04 2.08-1.8 3.44-4.52 3.42-1.18 0-2.3-.25-2.9-.53l.36-2.25.35.16c.82.4 1.38.52 2.43.52.73 0 1.54-.3 1.54-.97 0-.43-.33-.76-1.34-1.24-1-.48-2.28-1.28-2.27-2.72.02-1.95 1.82-3.3 4.38-3.3 1 0 1.8.2 2.33.4zM31.9 7L34 17.03h-2.4l-.32-1.5h-3.3s-.12.27-.56 1.5H24.7l3.85-9.2c.26-.64.73-.83 1.36-.83h2zM36 2c0-1.1-.9-2-2-2H2C.9 0 0 .9 0 2v20c0 1.1.9 2 2 2h32c1.1 0 2-.9 2-2V2z"/></symbol>
    <symbol id="youtube" viewBox="0 0 46 46"><path fill="#CD201F" fill-rule="evenodd" d="M23 46c12.7 0 23-10.3 23-23S35.7 0 23 0 0 10.3 0 23s10.3 23 23 23zm-3.3-18.85v-9l8.64 4.52-8.64 4.48zM38.68 16.6s-.3-2.2-1.27-3.17c-1.2-1.28-2.57-1.28-3.2-1.36-4.48-.32-11.2-.32-11.2-.32s-6.72 0-11.2.32c-.63.08-2 .08-3.2 1.36-.97.97-1.28 3.17-1.28 3.17S7 19.2 7 21.78v2.43c0 2.6.32 5.18.32 5.18s.3 2.2 1.27 3.18c1.2 1.27 2.8 1.23 3.52 1.37 2.56.24 10.88.32 10.88.32s6.72 0 11.2-.34c.63-.06 2-.07 3.2-1.34.97-.97 1.28-3.18 1.28-3.18S39 26.8 39 24.2V21.8c0-2.6-.32-5.18-.32-5.18z"/></symbol>
    <symbol id="zoom-in" viewBox="0 0 24 24"><path fill-rule="evenodd" d="M15.5 18.34C13.94 19.4 12.05 20 10 20 4.48 20 0 15.52 0 10S4.48 0 10 0s10 4.48 10 10c0 2.04-.6 3.93-1.66 5.5l5.07 5.1c.38.35.6.85.6 1.4 0 1.1-.9 2-2 2-.55 0-1.05-.22-1.4-.6l-5.1-5.06zM10 16c3.3 0 6-2.7 6-6s-2.7-6-6-6-6 2.7-6 6 2.7 6 6 6zm1-9c0-.55-.45-1-1-1-.56 0-1 .45-1 1v2H7c-.55 0-1 .45-1 1 0 .56.45 1 1 1h2v2c0 .55.45 1 1 1 .56 0 1-.45 1-1v-2h2c.55 0 1-.45 1-1 0-.56-.45-1-1-1h-2V7z"/></symbol>
    <symbol id="zoom-out" viewBox="0 0 24 24"><path fill-rule="evenodd" d="M15.5 18.34C13.94 19.4 12.05 20 10 20 4.48 20 0 15.52 0 10S4.48 0 10 0s10 4.48 10 10c0 2.04-.6 3.93-1.66 5.5l5.07 5.1c.38.35.6.85.6 1.4 0 1.1-.9 2-2 2-.55 0-1.05-.22-1.4-.6l-5.1-5.06zM10 16c3.3 0 6-2.7 6-6s-2.7-6-6-6-6 2.7-6 6 2.7 6 6 6zm-4-6c0-.55.45-1 1-1h6c.55 0 1 .44 1 1 0 .55-.45 1-1 1H7c-.55 0-1-.44-1-1z"/></symbol>
  </defs>
</svg>