<svg xmlns="http://www.w3.org/2000/svg" style="display: none;">
  <defs>
    <symbol id="add-circle" viewBox="0 0 26 26"><path fill-rule="evenodd" d="M15 15h4c1 0 2-1 2-2s-1-2-2-2h-4V7c0-1-1-2-2-2s-2 1-2 2v4H7c-1 0-2 1-2 2s1 2 2 2h4v4c0 1 1 2 2 2s2-1 2-2v-4zm7.2-11.2c-5-5-13.3-5-18.4 0-5 5-5 13.3 0 18.4 5 5 13.3 5 18.4 0 5-5 5-13.3 0-18.4z"/></symbol>
    <symbol id="caret-down" viewBox="0 0 20 12"><path fill-rule="evenodd" d="M19.4 3.4c.38-.35.6-.85.6-1.4 0-1.1-.9-2-2-2H2C.9 0 0 .9 0 2c0 .55.22 1.05.6 1.4l8 8c.35.38.85.6 1.4.6.55 0 1.05-.22 1.4-.6l8-8z"/></symbol>
    <symbol id="caret-right" viewBox="0 0 14 24">
      <path d="M0,2.00334014 L0,21.9966599 C0,23.7778744 2.15428384,24.6699099 3.41421356,23.4104011 L13.4142136,13.4137412 C14.1952621,12.6329535 14.1952621,11.3670465 13.4142136,10.5862588 L3.41421356,0.589598947 C2.15428384,-0.669909942 0,0.22212559 0,2.00334014 Z"></path>
    </symbol>
    <symbol id="caret-left" viewBox="0 0 12 20"><path fill-rule="evenodd" d="M8.6.6C8.94.2 9.44 0 10 0c1.1 0 2 .9 2 2v16c0 1.1-.9 2-2 2-.55 0-1.05-.22-1.4-.6l-8-8C.2 11.06 0 10.56 0 10c0-.55.22-1.05.6-1.4l8-8z"/></symbol>
    <symbol id="caret-right" viewBox="0 0 12 20"><path fill-rule="evenodd" d="M3.4.6C3.06.2 2.56 0 2 0 .9 0 0 .9 0 2v16c0 1.1.9 2 2 2 .55 0 1.05-.22 1.4-.6l8-8c.38-.35.6-.85.6-1.4 0-.55-.22-1.05-.6-1.4l-8-8z"/></symbol>
    <symbol id="caret-up" viewBox="0 0 20 12"><path fill-rule="evenodd" d="M19.4 8.6c.38.35.6.85.6 1.4 0 1.1-.9 2-2 2H2c-1.1 0-2-.9-2-2 0-.55.22-1.05.6-1.4l8-8C8.94.2 9.44 0 10 0c.55 0 1.05.22 1.4.6l8 8z"/></symbol>
    <symbol id="check" viewBox="0 0 32 24"><path fill-rule="evenodd" d="M6.83 9.17C6.1 8.45 5.1 8 4 8c-2.2 0-4 1.8-4 4 0 1.1.45 2.1 1.17 2.83l8 8C9.9 23.55 10.9 24 12 24s2.1-.45 2.83-1.17l16-16C31.55 6.1 32 5.1 32 4c0-2.2-1.8-4-4-4-1.1 0-2.1.45-2.83 1.17L12 14.34 6.83 9.17z"/></symbol>
    <symbol id="chevron-left" viewBox="0 0 16 24"><path fill-rule="evenodd" d="M14.82 6.83C15.55 6.1 16 5.1 16 4c0-2.2-1.8-4-4-4-1.1 0-2.1.45-2.83 1.17L1.12 9.2C.42 9.93 0 10.92 0 12c0 1.1.45 2.1 1.17 2.82l8 8.02C9.9 23.56 10.9 24 12 24c2.2 0 4-1.8 4-4 0-1.1-.45-2.1-1.18-2.84L9.64 12l5.18-5.17z"/></symbol>
    <symbol id="chevron-right" viewBox="0 0 16 24"><path fill-rule="evenodd" d="M1.18 6.83C.45 6.1 0 5.1 0 4c0-2.2 1.8-4 4-4 1.1 0 2.1.45 2.83 1.17l8.05 8.03c.7.73 1.12 1.72 1.12 2.8 0 1.1-.45 2.1-1.17 2.82l-8 8.02C6.1 23.56 5.1 24 4 24c-2.2 0-4-1.8-4-4 0-1.1.45-2.1 1.18-2.84L6.36 12 1.18 6.84z"/></symbol>
    <symbol id="invodo-360" viewBox="0 0 46 26" xmlns="http://www.w3.org/2000/symbol"><path d="M11 5.32C4.4 6.9 0 9.75 0 13c0 4.16 7.2 7.66 17 8.7v-4C9.45 16.9 4 14.64 4 12c0-1.88 2.73-3.55 7-4.65V5.32zm24 0C41.6 6.9 46 9.75 46 13c0 4.16-7.2 7.66-17 8.7v-4c7.55-.8 13-3.05 13-5.7 0-1.88-2.73-3.55-7-4.65V5.32zM17 14l10 6-10 6V14zm-.62-4.44c0 .28-.13.42-.43.42h-.25c-.3 0-.43-.14-.43-.42V7.92H13v1.9c0 1.46.74 2.18 2.23 2.18h1.3c1.5 0 2.24-.72 2.24-2.2V7.3c0-.84-.3-1.3-1.03-1.5.64-.24 1-.74 1-1.76V2.2C18.74.7 18 0 16.5 0h-1.23c-1.5 0-2.24.72-2.24 2.2v1.66h2.27V2.44c0-.28.14-.42.43-.42h.2c.28 0 .42.14.42.42v2c0 .3-.14.43-.43.43h-1.8v2.07h1.83c.3 0 .43.14.43.43v2.2zm6-7.12c0-.28.13-.42.42-.42h.23c.3 0 .43.14.43.42V3.8h2.3V2.2c0-1.48-.72-2.2-2.22-2.2h-1.32C20.72 0 20 .72 20 2.2v7.6c0 1.48.72 2.2 2.22 2.2h1.37c1.5 0 2.23-.72 2.23-2.2V6.57c0-1.17-.73-1.96-1.95-1.96h-.08c-.55 0-1 .14-1.43.32V2.44zM33 9.8V2.2C33 .7 32.26 0 30.77 0H29.3c-1.5 0-2.24.72-2.24 2.2v7.6c0 1.48.74 2.2 2.23 2.2h1.47c1.5 0 2.23-.72 2.23-2.2zM36 4c1.1 0 2-.9 2-2s-.9-2-2-2-2 .9-2 2 .9 2 2 2zm-5.4-1.56v7.12c0 .28-.12.42-.42.42h-.3c-.3 0-.44-.14-.44-.42V2.44c0-.28.14-.42.43-.42h.3c.3 0 .44.14.44.42zm-8.23 4.3c.14-.05.4-.1.66-.1.34 0 .43.12.43.4v2.52c0 .28-.14.42-.43.42h-.23c-.3 0-.43-.14-.43-.42V6.74z" fill-rule="evenodd"/></symbol>
    <symbol id="play-circle" viewBox="0 0 46 46" xmlns="http://www.w3.org/2000/symbol"><path d="M23 46c12.7 0 23-10.3 23-23S35.7 0 23 0 0 10.3 0 23s10.3 23 23 23zm10.3-24c1 .6 1 1.4 0 2l-14.6 8.4c-1 .5-1.7 0-1.7-1V14.6c0-1 .8-1.5 1.7-1L33.3 22z" fill-rule="evenodd"/></symbol>
    <symbol id="plus-circle" viewBox="0 0 24 24"><path fill-rule="evenodd" d="M3.5 20.5c4.7 4.67 12.3 4.67 17 0 4.67-4.7 4.67-12.3 0-17-4.7-4.67-12.3-4.67-17 0-4.67 4.7-4.67 12.3 0 17zM10 14v3.66c0 .5.2 1.02.6 1.4.77.8 2.03.8 2.8 0 .4-.38.6-.9.6-1.4V14h3.66c.5 0 1.02-.2 1.4-.6.8-.77.8-2.03 0-2.8-.38-.4-.9-.6-1.4-.6H14V6.34c0-.5-.2-1.02-.6-1.4-.77-.8-2.03-.8-2.8 0-.4.38-.6.9-.6 1.4V10H6.34c-.5 0-1.02.2-1.4.6-.8.77-.8 2.03 0 2.8.38.4.9.6 1.4.6H10z"/></symbol>
    <symbol id="search" viewBox="0 0 28 28"><path fill-rule="evenodd" d="M17.17 22.83C15.6 23.58 13.85 24 12 24 5.37 24 0 18.63 0 12S5.37 0 12 0s12 5.37 12 12c0 1.85-.42 3.6-1.17 5.17l4 4C27.55 21.9 28 22.9 28 24c0 2.2-1.8 4-4 4-1.1 0-2.1-.45-2.83-1.17l-4-4zM12 16c2.2 0 4-1.8 4-4s-1.8-4-4-4-4 1.8-4 4 1.8 4 4 4z"/></symbol>
    <symbol id="subtract-circle" viewBox="0 0 24 24"><path fill-rule="evenodd" d="M24 12c0-6.63-5.37-12-12-12S0 5.37 0 12s5.37 12 12 12 12-5.37 12-12zM4 12c0-1.1.9-2 2-2h12c1.1 0 2 .9 2 2s-.9 2-2 2H6c-1.1 0-2-.9-2-2z"/></symbol>
    <symbol id="times-circle" viewBox="0 0 24 24"><path fill-rule="evenodd" d="M12 24c6.63 0 12-5.37 12-12S18.63 0 12 0 0 5.37 0 12s5.37 12 12 12zm0-9.17l2.6 2.58c.35.38.85.6 1.4.6 1.1 0 2-.9 2-2 0-.55-.22-1.05-.6-1.4L14.84 12l2.58-2.6c.38-.35.6-.85.6-1.4 0-1.1-.9-2-2-2-.55 0-1.05.22-1.4.6L12 9.16 9.4 6.6C9.06 6.2 8.56 6 8 6c-1.1 0-2 .9-2 2 0 .55.22 1.05.6 1.4L9.16 12 6.6 14.6c-.38.35-.6.85-.6 1.4 0 1.1.9 2 2 2 .55 0 1.05-.22 1.4-.6l2.6-2.57z"/></symbol>
    <symbol id="times" viewBox="0 0 24 24"><path fill-rule="evenodd" d="M12 17.66l5.17 5.17C17.9 23.55 18.9 24 20 24c2.2 0 4-1.8 4-4 0-1.1-.45-2.1-1.17-2.83L17.66 12l5.17-5.17C23.55 6.1 24 5.1 24 4c0-2.2-1.8-4-4-4-1.1 0-2.1.45-2.83 1.17L12 6.34 6.83 1.17C6.1.45 5.1 0 4 0 1.8 0 0 1.8 0 4c0 1.1.45 2.1 1.17 2.83L6.34 12l-5.17 5.17C.45 17.9 0 18.9 0 20c0 2.2 1.8 4 4 4 1.1 0 2.1-.45 2.83-1.17L12 17.66z"/></symbol>
  </defs>
</svg>